<svg xmlns="http://www.w3.org/2000/svg" xmlns:xlink="http://www.w3.org/1999/xlink" width="260" zoomAndPan="magnify" viewBox="0 0 194.87999 44.999999" height="60" preserveAspectRatio="xMidYMid meet" version="1.0"><defs><g/><clipPath id="805e608703"><path d="M 38 7 L 42 7 L 42 10 L 38 10 Z M 38 7 " clip-rule="nonzero"/></clipPath><clipPath id="dd795a9958"><path d="M 31.292969 0.015625 L 65.738281 25.292969 L 51.101562 45.234375 L 16.660156 19.953125 Z M 31.292969 0.015625 " clip-rule="nonzero"/></clipPath><clipPath id="9e2d7c60f7"><path d="M 31.292969 0.015625 L 65.738281 25.292969 L 51.101562 45.234375 L 16.660156 19.953125 Z M 31.292969 0.015625 " clip-rule="nonzero"/></clipPath><clipPath id="ac8bceffed"><path d="M 31.292969 0.015625 L 65.738281 25.292969 L 51.101562 45.234375 L 16.660156 19.953125 Z M 31.292969 0.015625 " clip-rule="nonzero"/></clipPath><clipPath id="ef3c4a30da"><path d="M 38 6 L 42 6 L 42 10 L 38 10 Z M 38 6 " clip-rule="nonzero"/></clipPath><clipPath id="e6c62108b4"><path d="M 31.292969 0.015625 L 65.738281 25.292969 L 51.101562 45.234375 L 16.660156 19.953125 Z M 31.292969 0.015625 " clip-rule="nonzero"/></clipPath><clipPath id="3154c201fb"><path d="M 31.292969 0.015625 L 65.738281 25.292969 L 51.101562 45.234375 L 16.660156 19.953125 Z M 31.292969 0.015625 " clip-rule="nonzero"/></clipPath><clipPath id="cc83a95e45"><path d="M 31.292969 0.015625 L 65.738281 25.292969 L 51.101562 45.234375 L 16.660156 19.953125 Z M 31.292969 0.015625 " clip-rule="nonzero"/></clipPath><clipPath id="b2e23d0bfd"><path d="M 19 2 L 52 2 L 52 38 L 19 38 Z M 19 2 " clip-rule="nonzero"/></clipPath><clipPath id="001c041580"><path d="M 31.292969 0.015625 L 65.738281 25.292969 L 51.101562 45.234375 L 16.660156 19.953125 Z M 31.292969 0.015625 " clip-rule="nonzero"/></clipPath><clipPath id="d5cfa0f554"><path d="M 31.292969 0.015625 L 65.738281 25.292969 L 51.101562 45.234375 L 16.660156 19.953125 Z M 31.292969 0.015625 " clip-rule="nonzero"/></clipPath><clipPath id="511d2adf33"><path d="M 31.292969 0.015625 L 65.738281 25.292969 L 51.101562 45.234375 L 16.660156 19.953125 Z M 31.292969 0.015625 " clip-rule="nonzero"/></clipPath><clipPath id="83dc32ec58"><path d="M 28 8 L 36 8 L 36 17 L 28 17 Z M 28 8 " clip-rule="nonzero"/></clipPath><clipPath id="39a5025084"><path d="M 31.292969 0.015625 L 65.738281 25.292969 L 51.101562 45.234375 L 16.660156 19.953125 Z M 31.292969 0.015625 " clip-rule="nonzero"/></clipPath><clipPath id="465681c65c"><path d="M 31.292969 0.015625 L 65.738281 25.292969 L 51.101562 45.234375 L 16.660156 19.953125 Z M 31.292969 0.015625 " clip-rule="nonzero"/></clipPath><clipPath id="e1dbc09871"><path d="M 31.292969 0.015625 L 65.738281 25.292969 L 51.101562 45.234375 L 16.660156 19.953125 Z M 31.292969 0.015625 " clip-rule="nonzero"/></clipPath><clipPath id="9512255abc"><path d="M 27 8 L 37 8 L 37 17 L 27 17 Z M 27 8 " clip-rule="nonzero"/></clipPath><clipPath id="99acca8b77"><path d="M 31.292969 0.015625 L 65.738281 25.292969 L 51.101562 45.234375 L 16.660156 19.953125 Z M 31.292969 0.015625 " clip-rule="nonzero"/></clipPath><clipPath id="44e7a20b4d"><path d="M 31.292969 0.015625 L 65.738281 25.292969 L 51.101562 45.234375 L 16.660156 19.953125 Z M 31.292969 0.015625 " clip-rule="nonzero"/></clipPath><clipPath id="2951d6d065"><path d="M 31.292969 0.015625 L 65.738281 25.292969 L 51.101562 45.234375 L 16.660156 19.953125 Z M 31.292969 0.015625 " clip-rule="nonzero"/></clipPath><clipPath id="064ad56266"><path d="M 29 20 L 36 20 L 36 27 L 29 27 Z M 29 20 " clip-rule="nonzero"/></clipPath><clipPath id="b090b58ca4"><path d="M 31.292969 0.015625 L 65.738281 25.292969 L 51.101562 45.234375 L 16.660156 19.953125 Z M 31.292969 0.015625 " clip-rule="nonzero"/></clipPath><clipPath id="a13ebaa38d"><path d="M 31.292969 0.015625 L 65.738281 25.292969 L 51.101562 45.234375 L 16.660156 19.953125 Z M 31.292969 0.015625 " clip-rule="nonzero"/></clipPath><clipPath id="72cedaed97"><path d="M 31.292969 0.015625 L 65.738281 25.292969 L 51.101562 45.234375 L 16.660156 19.953125 Z M 31.292969 0.015625 " clip-rule="nonzero"/></clipPath><clipPath id="bac3518591"><path d="M 33 23 L 39 23 L 39 29 L 33 29 Z M 33 23 " clip-rule="nonzero"/></clipPath><clipPath id="2fcb7de313"><path d="M 31.292969 0.015625 L 65.738281 25.292969 L 51.101562 45.234375 L 16.660156 19.953125 Z M 31.292969 0.015625 " clip-rule="nonzero"/></clipPath><clipPath id="482d2c5258"><path d="M 31.292969 0.015625 L 65.738281 25.292969 L 51.101562 45.234375 L 16.660156 19.953125 Z M 31.292969 0.015625 " clip-rule="nonzero"/></clipPath><clipPath id="be7010c709"><path d="M 31.292969 0.015625 L 65.738281 25.292969 L 51.101562 45.234375 L 16.660156 19.953125 Z M 31.292969 0.015625 " clip-rule="nonzero"/></clipPath><clipPath id="c589f60ac2"><path d="M 37 8 L 44 8 L 44 15 L 37 15 Z M 37 8 " clip-rule="nonzero"/></clipPath><clipPath id="1f252826cd"><path d="M 31.292969 0.015625 L 65.738281 25.292969 L 51.101562 45.234375 L 16.660156 19.953125 Z M 31.292969 0.015625 " clip-rule="nonzero"/></clipPath><clipPath id="8deb5b2f65"><path d="M 31.292969 0.015625 L 65.738281 25.292969 L 51.101562 45.234375 L 16.660156 19.953125 Z M 31.292969 0.015625 " clip-rule="nonzero"/></clipPath><clipPath id="c1ef340e8d"><path d="M 31.292969 0.015625 L 65.738281 25.292969 L 51.101562 45.234375 L 16.660156 19.953125 Z M 31.292969 0.015625 " clip-rule="nonzero"/></clipPath><clipPath id="e762920ae7"><path d="M 37 11 L 43 11 L 43 19 L 37 19 Z M 37 11 " clip-rule="nonzero"/></clipPath><clipPath id="c11cd472f4"><path d="M 31.292969 0.015625 L 65.738281 25.292969 L 51.101562 45.234375 L 16.660156 19.953125 Z M 31.292969 0.015625 " clip-rule="nonzero"/></clipPath><clipPath id="dd6fede4fa"><path d="M 31.292969 0.015625 L 65.738281 25.292969 L 51.101562 45.234375 L 16.660156 19.953125 Z M 31.292969 0.015625 " clip-rule="nonzero"/></clipPath><clipPath id="6adf4a94d4"><path d="M 31.292969 0.015625 L 65.738281 25.292969 L 51.101562 45.234375 L 16.660156 19.953125 Z M 31.292969 0.015625 " clip-rule="nonzero"/></clipPath><clipPath id="2228e4d97d"><path d="M 37 15 L 43 15 L 43 22 L 37 22 Z M 37 15 " clip-rule="nonzero"/></clipPath><clipPath id="d2d478b773"><path d="M 31.292969 0.015625 L 65.738281 25.292969 L 51.101562 45.234375 L 16.660156 19.953125 Z M 31.292969 0.015625 " clip-rule="nonzero"/></clipPath><clipPath id="ef4bd83196"><path d="M 31.292969 0.015625 L 65.738281 25.292969 L 51.101562 45.234375 L 16.660156 19.953125 Z M 31.292969 0.015625 " clip-rule="nonzero"/></clipPath><clipPath id="b05df44453"><path d="M 31.292969 0.015625 L 65.738281 25.292969 L 51.101562 45.234375 L 16.660156 19.953125 Z M 31.292969 0.015625 " clip-rule="nonzero"/></clipPath><clipPath id="1bccca0570"><path d="M 37 18 L 44 18 L 44 25 L 37 25 Z M 37 18 " clip-rule="nonzero"/></clipPath><clipPath id="680b45359a"><path d="M 31.292969 0.015625 L 65.738281 25.292969 L 51.101562 45.234375 L 16.660156 19.953125 Z M 31.292969 0.015625 " clip-rule="nonzero"/></clipPath><clipPath id="020e27621e"><path d="M 31.292969 0.015625 L 65.738281 25.292969 L 51.101562 45.234375 L 16.660156 19.953125 Z M 31.292969 0.015625 " clip-rule="nonzero"/></clipPath><clipPath id="ff5514c825"><path d="M 31.292969 0.015625 L 65.738281 25.292969 L 51.101562 45.234375 L 16.660156 19.953125 Z M 31.292969 0.015625 " clip-rule="nonzero"/></clipPath><clipPath id="4138130edb"><path d="M 39 21 L 45 21 L 45 28 L 39 28 Z M 39 21 " clip-rule="nonzero"/></clipPath><clipPath id="535193f44e"><path d="M 31.292969 0.015625 L 65.738281 25.292969 L 51.101562 45.234375 L 16.660156 19.953125 Z M 31.292969 0.015625 " clip-rule="nonzero"/></clipPath><clipPath id="8e5b7fb593"><path d="M 31.292969 0.015625 L 65.738281 25.292969 L 51.101562 45.234375 L 16.660156 19.953125 Z M 31.292969 0.015625 " clip-rule="nonzero"/></clipPath><clipPath id="bbcfa8cc93"><path d="M 31.292969 0.015625 L 65.738281 25.292969 L 51.101562 45.234375 L 16.660156 19.953125 Z M 31.292969 0.015625 " clip-rule="nonzero"/></clipPath><clipPath id="3f6fa31786"><path d="M 41 24 L 47 24 L 47 31 L 41 31 Z M 41 24 " clip-rule="nonzero"/></clipPath><clipPath id="d38b0b8d7a"><path d="M 31.292969 0.015625 L 65.738281 25.292969 L 51.101562 45.234375 L 16.660156 19.953125 Z M 31.292969 0.015625 " clip-rule="nonzero"/></clipPath><clipPath id="39cbd15627"><path d="M 31.292969 0.015625 L 65.738281 25.292969 L 51.101562 45.234375 L 16.660156 19.953125 Z M 31.292969 0.015625 " clip-rule="nonzero"/></clipPath><clipPath id="0e3e80c833"><path d="M 31.292969 0.015625 L 65.738281 25.292969 L 51.101562 45.234375 L 16.660156 19.953125 Z M 31.292969 0.015625 " clip-rule="nonzero"/></clipPath><clipPath id="fa62425e11"><path d="M 43 27 L 49 27 L 49 33 L 43 33 Z M 43 27 " clip-rule="nonzero"/></clipPath><clipPath id="14a8d89086"><path d="M 31.292969 0.015625 L 65.738281 25.292969 L 51.101562 45.234375 L 16.660156 19.953125 Z M 31.292969 0.015625 " clip-rule="nonzero"/></clipPath><clipPath id="3595fc814d"><path d="M 31.292969 0.015625 L 65.738281 25.292969 L 51.101562 45.234375 L 16.660156 19.953125 Z M 31.292969 0.015625 " clip-rule="nonzero"/></clipPath><clipPath id="94ecf679be"><path d="M 31.292969 0.015625 L 65.738281 25.292969 L 51.101562 45.234375 L 16.660156 19.953125 Z M 31.292969 0.015625 " clip-rule="nonzero"/></clipPath><clipPath id="ee54e84036"><path d="M 45 29 L 51 29 L 51 35 L 45 35 Z M 45 29 " clip-rule="nonzero"/></clipPath><clipPath id="0e5ea921ea"><path d="M 31.292969 0.015625 L 65.738281 25.292969 L 51.101562 45.234375 L 16.660156 19.953125 Z M 31.292969 0.015625 " clip-rule="nonzero"/></clipPath><clipPath id="92119e2c42"><path d="M 31.292969 0.015625 L 65.738281 25.292969 L 51.101562 45.234375 L 16.660156 19.953125 Z M 31.292969 0.015625 " clip-rule="nonzero"/></clipPath><clipPath id="476f717add"><path d="M 31.292969 0.015625 L 65.738281 25.292969 L 51.101562 45.234375 L 16.660156 19.953125 Z M 31.292969 0.015625 " clip-rule="nonzero"/></clipPath><clipPath id="d247758e1f"><path d="M 49 33 L 55 33 L 55 39 L 49 39 Z M 49 33 " clip-rule="nonzero"/></clipPath><clipPath id="81dbc3e5af"><path d="M 31.292969 0.015625 L 65.738281 25.292969 L 51.101562 45.234375 L 16.660156 19.953125 Z M 31.292969 0.015625 " clip-rule="nonzero"/></clipPath><clipPath id="e60609cd2a"><path d="M 31.292969 0.015625 L 65.738281 25.292969 L 51.101562 45.234375 L 16.660156 19.953125 Z M 31.292969 0.015625 " clip-rule="nonzero"/></clipPath><clipPath id="e05070612b"><path d="M 31.292969 0.015625 L 65.738281 25.292969 L 51.101562 45.234375 L 16.660156 19.953125 Z M 31.292969 0.015625 " clip-rule="nonzero"/></clipPath><clipPath id="9e1c5bd1a8"><path d="M 48 32 L 56 32 L 56 40 L 48 40 Z M 48 32 " clip-rule="nonzero"/></clipPath><clipPath id="68416d26ad"><path d="M 31.292969 0.015625 L 65.738281 25.292969 L 51.101562 45.234375 L 16.660156 19.953125 Z M 31.292969 0.015625 " clip-rule="nonzero"/></clipPath><clipPath id="81befba933"><path d="M 31.292969 0.015625 L 65.738281 25.292969 L 51.101562 45.234375 L 16.660156 19.953125 Z M 31.292969 0.015625 " clip-rule="nonzero"/></clipPath><clipPath id="27e825f90e"><path d="M 31.292969 0.015625 L 65.738281 25.292969 L 51.101562 45.234375 L 16.660156 19.953125 Z M 31.292969 0.015625 " clip-rule="nonzero"/></clipPath><clipPath id="bbc29cd160"><path d="M 17 16 L 55 16 L 55 43 L 17 43 Z M 17 16 " clip-rule="nonzero"/></clipPath><clipPath id="2bcb373998"><path d="M 31.292969 0.015625 L 65.738281 25.292969 L 51.101562 45.234375 L 16.660156 19.953125 Z M 31.292969 0.015625 " clip-rule="nonzero"/></clipPath><clipPath id="4a9c7e82ab"><path d="M 31.292969 0.015625 L 65.738281 25.292969 L 51.101562 45.234375 L 16.660156 19.953125 Z M 31.292969 0.015625 " clip-rule="nonzero"/></clipPath><clipPath id="4551ee88b9"><path d="M 31.292969 0.015625 L 65.738281 25.292969 L 51.101562 45.234375 L 16.660156 19.953125 Z M 31.292969 0.015625 " clip-rule="nonzero"/></clipPath><clipPath id="4f4f9d1133"><path d="M 40 31 L 47 31 L 47 40 L 40 40 Z M 40 31 " clip-rule="nonzero"/></clipPath><clipPath id="afdccdb7e8"><path d="M 31.292969 0.015625 L 65.738281 25.292969 L 51.101562 45.234375 L 16.660156 19.953125 Z M 31.292969 0.015625 " clip-rule="nonzero"/></clipPath><clipPath id="a5dc55c14a"><path d="M 31.292969 0.015625 L 65.738281 25.292969 L 51.101562 45.234375 L 16.660156 19.953125 Z M 31.292969 0.015625 " clip-rule="nonzero"/></clipPath><clipPath id="e1e69fd60f"><path d="M 31.292969 0.015625 L 65.738281 25.292969 L 51.101562 45.234375 L 16.660156 19.953125 Z M 31.292969 0.015625 " clip-rule="nonzero"/></clipPath><clipPath id="918e105763"><path d="M 16 15 L 22 15 L 22 22 L 16 22 Z M 16 15 " clip-rule="nonzero"/></clipPath><clipPath id="02b110b54a"><path d="M 31.292969 0.015625 L 65.738281 25.292969 L 51.101562 45.234375 L 16.660156 19.953125 Z M 31.292969 0.015625 " clip-rule="nonzero"/></clipPath><clipPath id="b6b52b8dd3"><path d="M 31.292969 0.015625 L 65.738281 25.292969 L 51.101562 45.234375 L 16.660156 19.953125 Z M 31.292969 0.015625 " clip-rule="nonzero"/></clipPath><clipPath id="1da2108969"><path d="M 31.292969 0.015625 L 65.738281 25.292969 L 51.101562 45.234375 L 16.660156 19.953125 Z M 31.292969 0.015625 " clip-rule="nonzero"/></clipPath><clipPath id="bb5242bc33"><path d="M 16 16 L 46 16 L 46 39 L 16 39 Z M 16 16 " clip-rule="nonzero"/></clipPath><clipPath id="3bfff3a622"><path d="M 31.292969 0.015625 L 65.738281 25.292969 L 51.101562 45.234375 L 16.660156 19.953125 Z M 31.292969 0.015625 " clip-rule="nonzero"/></clipPath><clipPath id="7d2d3da16f"><path d="M 31.292969 0.015625 L 65.738281 25.292969 L 51.101562 45.234375 L 16.660156 19.953125 Z M 31.292969 0.015625 " clip-rule="nonzero"/></clipPath><clipPath id="8932a639d2"><path d="M 31.292969 0.015625 L 65.738281 25.292969 L 51.101562 45.234375 L 16.660156 19.953125 Z M 31.292969 0.015625 " clip-rule="nonzero"/></clipPath><clipPath id="044e16917a"><path d="M 36 6 L 52 6 L 52 38 L 36 38 Z M 36 6 " clip-rule="nonzero"/></clipPath><clipPath id="ee49e4acd5"><path d="M 31.292969 0.015625 L 65.738281 25.292969 L 51.101562 45.234375 L 16.660156 19.953125 Z M 31.292969 0.015625 " clip-rule="nonzero"/></clipPath><clipPath id="2a7383ffe4"><path d="M 31.292969 0.015625 L 65.738281 25.292969 L 51.101562 45.234375 L 16.660156 19.953125 Z M 31.292969 0.015625 " clip-rule="nonzero"/></clipPath><clipPath id="5cea0947ea"><path d="M 31.292969 0.015625 L 65.738281 25.292969 L 51.101562 45.234375 L 16.660156 19.953125 Z M 31.292969 0.015625 " clip-rule="nonzero"/></clipPath><clipPath id="aa4663f4b8"><path d="M 40 11 L 43 11 L 43 13 L 40 13 Z M 40 11 " clip-rule="nonzero"/></clipPath><clipPath id="15b41de19a"><path d="M 31.292969 0.015625 L 65.738281 25.292969 L 51.101562 45.234375 L 16.660156 19.953125 Z M 31.292969 0.015625 " clip-rule="nonzero"/></clipPath><clipPath id="b70dec3c64"><path d="M 31.292969 0.015625 L 65.738281 25.292969 L 51.101562 45.234375 L 16.660156 19.953125 Z M 31.292969 0.015625 " clip-rule="nonzero"/></clipPath><clipPath id="7188c591a8"><path d="M 31.292969 0.015625 L 65.738281 25.292969 L 51.101562 45.234375 L 16.660156 19.953125 Z M 31.292969 0.015625 " clip-rule="nonzero"/></clipPath><clipPath id="a190954a12"><path d="M 40 10 L 43 10 L 43 13 L 40 13 Z M 40 10 " clip-rule="nonzero"/></clipPath><clipPath id="b95585ebd9"><path d="M 31.292969 0.015625 L 65.738281 25.292969 L 51.101562 45.234375 L 16.660156 19.953125 Z M 31.292969 0.015625 " clip-rule="nonzero"/></clipPath><clipPath id="05bac94bf3"><path d="M 31.292969 0.015625 L 65.738281 25.292969 L 51.101562 45.234375 L 16.660156 19.953125 Z M 31.292969 0.015625 " clip-rule="nonzero"/></clipPath><clipPath id="ea9dcca2fd"><path d="M 31.292969 0.015625 L 65.738281 25.292969 L 51.101562 45.234375 L 16.660156 19.953125 Z M 31.292969 0.015625 " clip-rule="nonzero"/></clipPath><clipPath id="ff824ac185"><path d="M 40 14 L 43 14 L 43 16 L 40 16 Z M 40 14 " clip-rule="nonzero"/></clipPath><clipPath id="1da2b8d9ee"><path d="M 31.292969 0.015625 L 65.738281 25.292969 L 51.101562 45.234375 L 16.660156 19.953125 Z M 31.292969 0.015625 " clip-rule="nonzero"/></clipPath><clipPath id="641cc9c470"><path d="M 31.292969 0.015625 L 65.738281 25.292969 L 51.101562 45.234375 L 16.660156 19.953125 Z M 31.292969 0.015625 " clip-rule="nonzero"/></clipPath><clipPath id="6c77f239e2"><path d="M 31.292969 0.015625 L 65.738281 25.292969 L 51.101562 45.234375 L 16.660156 19.953125 Z M 31.292969 0.015625 " clip-rule="nonzero"/></clipPath><clipPath id="dbc2fbd02b"><path d="M 40 14 L 43 14 L 43 17 L 40 17 Z M 40 14 " clip-rule="nonzero"/></clipPath><clipPath id="b2611482dd"><path d="M 31.292969 0.015625 L 65.738281 25.292969 L 51.101562 45.234375 L 16.660156 19.953125 Z M 31.292969 0.015625 " clip-rule="nonzero"/></clipPath><clipPath id="cf9efbc097"><path d="M 31.292969 0.015625 L 65.738281 25.292969 L 51.101562 45.234375 L 16.660156 19.953125 Z M 31.292969 0.015625 " clip-rule="nonzero"/></clipPath><clipPath id="c4c0d90a43"><path d="M 31.292969 0.015625 L 65.738281 25.292969 L 51.101562 45.234375 L 16.660156 19.953125 Z M 31.292969 0.015625 " clip-rule="nonzero"/></clipPath><clipPath id="fa70360745"><path d="M 40 17 L 43 17 L 43 19 L 40 19 Z M 40 17 " clip-rule="nonzero"/></clipPath><clipPath id="83095ecd76"><path d="M 31.292969 0.015625 L 65.738281 25.292969 L 51.101562 45.234375 L 16.660156 19.953125 Z M 31.292969 0.015625 " clip-rule="nonzero"/></clipPath><clipPath id="b2b1fc8aa2"><path d="M 31.292969 0.015625 L 65.738281 25.292969 L 51.101562 45.234375 L 16.660156 19.953125 Z M 31.292969 0.015625 " clip-rule="nonzero"/></clipPath><clipPath id="9668858445"><path d="M 31.292969 0.015625 L 65.738281 25.292969 L 51.101562 45.234375 L 16.660156 19.953125 Z M 31.292969 0.015625 " clip-rule="nonzero"/></clipPath><clipPath id="daea58922f"><path d="M 39 17 L 43 17 L 43 19 L 39 19 Z M 39 17 " clip-rule="nonzero"/></clipPath><clipPath id="9400f47fb6"><path d="M 31.292969 0.015625 L 65.738281 25.292969 L 51.101562 45.234375 L 16.660156 19.953125 Z M 31.292969 0.015625 " clip-rule="nonzero"/></clipPath><clipPath id="54bab9772c"><path d="M 31.292969 0.015625 L 65.738281 25.292969 L 51.101562 45.234375 L 16.660156 19.953125 Z M 31.292969 0.015625 " clip-rule="nonzero"/></clipPath><clipPath id="6fbef00954"><path d="M 31.292969 0.015625 L 65.738281 25.292969 L 51.101562 45.234375 L 16.660156 19.953125 Z M 31.292969 0.015625 " clip-rule="nonzero"/></clipPath><clipPath id="73eac3f716"><path d="M 40 20 L 43 20 L 43 22 L 40 22 Z M 40 20 " clip-rule="nonzero"/></clipPath><clipPath id="622ccd90e4"><path d="M 31.292969 0.015625 L 65.738281 25.292969 L 51.101562 45.234375 L 16.660156 19.953125 Z M 31.292969 0.015625 " clip-rule="nonzero"/></clipPath><clipPath id="ec8e059799"><path d="M 31.292969 0.015625 L 65.738281 25.292969 L 51.101562 45.234375 L 16.660156 19.953125 Z M 31.292969 0.015625 " clip-rule="nonzero"/></clipPath><clipPath id="fc85c89d03"><path d="M 31.292969 0.015625 L 65.738281 25.292969 L 51.101562 45.234375 L 16.660156 19.953125 Z M 31.292969 0.015625 " clip-rule="nonzero"/></clipPath><clipPath id="23f04ff6e8"><path d="M 40 20 L 43 20 L 43 23 L 40 23 Z M 40 20 " clip-rule="nonzero"/></clipPath><clipPath id="8299fed799"><path d="M 31.292969 0.015625 L 65.738281 25.292969 L 51.101562 45.234375 L 16.660156 19.953125 Z M 31.292969 0.015625 " clip-rule="nonzero"/></clipPath><clipPath id="4ca35ec3d8"><path d="M 31.292969 0.015625 L 65.738281 25.292969 L 51.101562 45.234375 L 16.660156 19.953125 Z M 31.292969 0.015625 " clip-rule="nonzero"/></clipPath><clipPath id="809b1f8a53"><path d="M 31.292969 0.015625 L 65.738281 25.292969 L 51.101562 45.234375 L 16.660156 19.953125 Z M 31.292969 0.015625 " clip-rule="nonzero"/></clipPath><clipPath id="6f7c3038fa"><path d="M 41 23 L 44 23 L 44 25 L 41 25 Z M 41 23 " clip-rule="nonzero"/></clipPath><clipPath id="978676ff45"><path d="M 31.292969 0.015625 L 65.738281 25.292969 L 51.101562 45.234375 L 16.660156 19.953125 Z M 31.292969 0.015625 " clip-rule="nonzero"/></clipPath><clipPath id="92546fbdf7"><path d="M 31.292969 0.015625 L 65.738281 25.292969 L 51.101562 45.234375 L 16.660156 19.953125 Z M 31.292969 0.015625 " clip-rule="nonzero"/></clipPath><clipPath id="9316d73e9e"><path d="M 31.292969 0.015625 L 65.738281 25.292969 L 51.101562 45.234375 L 16.660156 19.953125 Z M 31.292969 0.015625 " clip-rule="nonzero"/></clipPath><clipPath id="eea9bfba5c"><path d="M 43 25 L 46 25 L 46 28 L 43 28 Z M 43 25 " clip-rule="nonzero"/></clipPath><clipPath id="d772cb922a"><path d="M 31.292969 0.015625 L 65.738281 25.292969 L 51.101562 45.234375 L 16.660156 19.953125 Z M 31.292969 0.015625 " clip-rule="nonzero"/></clipPath><clipPath id="e6b597d805"><path d="M 31.292969 0.015625 L 65.738281 25.292969 L 51.101562 45.234375 L 16.660156 19.953125 Z M 31.292969 0.015625 " clip-rule="nonzero"/></clipPath><clipPath id="2ccc566a45"><path d="M 31.292969 0.015625 L 65.738281 25.292969 L 51.101562 45.234375 L 16.660156 19.953125 Z M 31.292969 0.015625 " clip-rule="nonzero"/></clipPath><clipPath id="19ae654120"><path d="M 45 28 L 47 28 L 47 31 L 45 31 Z M 45 28 " clip-rule="nonzero"/></clipPath><clipPath id="b392558c87"><path d="M 31.292969 0.015625 L 65.738281 25.292969 L 51.101562 45.234375 L 16.660156 19.953125 Z M 31.292969 0.015625 " clip-rule="nonzero"/></clipPath><clipPath id="57e7fa40fb"><path d="M 31.292969 0.015625 L 65.738281 25.292969 L 51.101562 45.234375 L 16.660156 19.953125 Z M 31.292969 0.015625 " clip-rule="nonzero"/></clipPath><clipPath id="b218d49664"><path d="M 31.292969 0.015625 L 65.738281 25.292969 L 51.101562 45.234375 L 16.660156 19.953125 Z M 31.292969 0.015625 " clip-rule="nonzero"/></clipPath><clipPath id="26167bf476"><path d="M 47 30 L 49 30 L 49 33 L 47 33 Z M 47 30 " clip-rule="nonzero"/></clipPath><clipPath id="2b4f5a8fe0"><path d="M 31.292969 0.015625 L 65.738281 25.292969 L 51.101562 45.234375 L 16.660156 19.953125 Z M 31.292969 0.015625 " clip-rule="nonzero"/></clipPath><clipPath id="6fc65b9af8"><path d="M 31.292969 0.015625 L 65.738281 25.292969 L 51.101562 45.234375 L 16.660156 19.953125 Z M 31.292969 0.015625 " clip-rule="nonzero"/></clipPath><clipPath id="1562b9e05d"><path d="M 31.292969 0.015625 L 65.738281 25.292969 L 51.101562 45.234375 L 16.660156 19.953125 Z M 31.292969 0.015625 " clip-rule="nonzero"/></clipPath><clipPath id="4824b48c7c"><path d="M 27 8 L 37 8 L 37 17 L 27 17 Z M 27 8 " clip-rule="nonzero"/></clipPath><clipPath id="57e6194250"><path d="M 30.871094 6.953125 L 37.804688 11.414062 L 33.34375 18.347656 L 26.410156 13.886719 Z M 30.871094 6.953125 " clip-rule="nonzero"/></clipPath><clipPath id="72cc404c44"><path d="M 30.871094 6.953125 L 37.804688 11.414062 L 33.34375 18.347656 L 26.410156 13.886719 Z M 30.871094 6.953125 " clip-rule="nonzero"/></clipPath><clipPath id="ed0df676de"><path d="M 30.871094 6.953125 L 37.804688 11.414062 L 33.34375 18.347656 L 26.410156 13.886719 Z M 30.871094 6.953125 " clip-rule="nonzero"/></clipPath><clipPath id="593b621085"><path d="M 28 9 L 36 9 L 36 16 L 28 16 Z M 28 9 " clip-rule="nonzero"/></clipPath><clipPath id="7f52c71dbf"><path d="M 30.871094 6.953125 L 37.804688 11.414062 L 33.34375 18.347656 L 26.410156 13.886719 Z M 30.871094 6.953125 " clip-rule="nonzero"/></clipPath><clipPath id="3dd929ee92"><path d="M 30.871094 6.953125 L 37.804688 11.414062 L 33.34375 18.347656 L 26.410156 13.886719 Z M 30.871094 6.953125 " clip-rule="nonzero"/></clipPath><clipPath id="e3934a85ef"><path d="M 30.871094 6.953125 L 37.804688 11.414062 L 33.34375 18.347656 L 26.410156 13.886719 Z M 30.871094 6.953125 " clip-rule="nonzero"/></clipPath><clipPath id="f518f28296"><path d="M 30 10 L 34 10 L 34 15 L 30 15 Z M 30 10 " clip-rule="nonzero"/></clipPath><clipPath id="54a84bbb78"><path d="M 30.871094 6.953125 L 37.804688 11.414062 L 33.34375 18.347656 L 26.410156 13.886719 Z M 30.871094 6.953125 " clip-rule="nonzero"/></clipPath><clipPath id="f5d0efb464"><path d="M 30.871094 6.953125 L 37.804688 11.414062 L 33.34375 18.347656 L 26.410156 13.886719 Z M 30.871094 6.953125 " clip-rule="nonzero"/></clipPath><clipPath id="5841dbb452"><path d="M 30.871094 6.953125 L 37.804688 11.414062 L 33.34375 18.347656 L 26.410156 13.886719 Z M 30.871094 6.953125 " clip-rule="nonzero"/></clipPath></defs><g fill="#000000" fill-opacity="1"><g transform="translate(50.051648, 31.069697)"><g><path d="M 6.015625 0.3125 C 4.929688 0.3125 4.039062 0.140625 3.34375 -0.203125 C 2.644531 -0.554688 2.125 -1.019531 1.78125 -1.59375 C 1.445312 -2.175781 1.28125 -2.816406 1.28125 -3.515625 C 1.28125 -4.691406 1.738281 -5.644531 2.65625 -6.375 C 3.570312 -7.101562 4.945312 -7.46875 6.78125 -7.46875 L 10 -7.46875 L 10 -7.78125 C 10 -8.644531 9.75 -9.28125 9.25 -9.6875 C 8.757812 -10.09375 8.148438 -10.296875 7.421875 -10.296875 C 6.753906 -10.296875 6.175781 -10.140625 5.6875 -9.828125 C 5.195312 -9.515625 4.890625 -9.050781 4.765625 -8.4375 L 1.578125 -8.4375 C 1.660156 -9.351562 1.96875 -10.148438 2.5 -10.828125 C 3.039062 -11.515625 3.734375 -12.039062 4.578125 -12.40625 C 5.429688 -12.769531 6.390625 -12.953125 7.453125 -12.953125 C 9.253906 -12.953125 10.671875 -12.5 11.703125 -11.59375 C 12.742188 -10.695312 13.265625 -9.425781 13.265625 -7.78125 L 13.265625 0 L 10.484375 0 L 10.171875 -2.046875 C 9.796875 -1.359375 9.269531 -0.789062 8.59375 -0.34375 C 7.925781 0.09375 7.066406 0.3125 6.015625 0.3125 Z M 6.75 -2.25 C 7.6875 -2.25 8.414062 -2.550781 8.9375 -3.15625 C 9.457031 -3.769531 9.785156 -4.53125 9.921875 -5.4375 L 7.140625 -5.4375 C 6.273438 -5.4375 5.65625 -5.273438 5.28125 -4.953125 C 4.90625 -4.640625 4.71875 -4.253906 4.71875 -3.796875 C 4.71875 -3.304688 4.90625 -2.925781 5.28125 -2.65625 C 5.65625 -2.382812 6.144531 -2.25 6.75 -2.25 Z M 6.75 -2.25 "/></g></g></g><g fill="#000000" fill-opacity="1"><g transform="translate(63.486038, 31.069697)"><g><path d="M 1.65625 0 L 1.65625 -18.359375 L 4.921875 -18.359375 L 4.921875 0 Z M 1.65625 0 "/></g></g></g><g fill="#000000" fill-opacity="1"><g transform="translate(68.813807, 31.069697)"><g><path d="M 1.65625 0 L 1.65625 -18.359375 L 4.921875 -18.359375 L 4.921875 0 Z M 1.65625 0 "/></g></g></g><g fill="#000000" fill-opacity="1"><g transform="translate(74.141576, 31.069697)"><g><path d="M 7.859375 0.3125 C 6.566406 0.3125 5.425781 0.03125 4.4375 -0.53125 C 3.445312 -1.09375 2.664062 -1.875 2.09375 -2.875 C 1.53125 -3.882812 1.25 -5.035156 1.25 -6.328125 C 1.25 -7.617188 1.53125 -8.765625 2.09375 -9.765625 C 2.664062 -10.765625 3.445312 -11.546875 4.4375 -12.109375 C 5.425781 -12.671875 6.566406 -12.953125 7.859375 -12.953125 C 9.472656 -12.953125 10.832031 -12.53125 11.9375 -11.6875 C 13.039062 -10.84375 13.742188 -9.6875 14.046875 -8.21875 L 10.609375 -8.21875 C 10.441406 -8.820312 10.101562 -9.296875 9.59375 -9.640625 C 9.09375 -9.992188 8.503906 -10.171875 7.828125 -10.171875 C 6.929688 -10.171875 6.164062 -9.832031 5.53125 -9.15625 C 4.90625 -8.476562 4.59375 -7.535156 4.59375 -6.328125 C 4.59375 -5.117188 4.90625 -4.171875 5.53125 -3.484375 C 6.164062 -2.804688 6.929688 -2.46875 7.828125 -2.46875 C 8.503906 -2.46875 9.09375 -2.640625 9.59375 -2.984375 C 10.101562 -3.328125 10.441406 -3.8125 10.609375 -4.4375 L 14.046875 -4.4375 C 13.742188 -3.007812 13.039062 -1.859375 11.9375 -0.984375 C 10.832031 -0.117188 9.472656 0.3125 7.859375 0.3125 Z M 7.859375 0.3125 "/></g></g></g><g fill="#000000" fill-opacity="1"><g transform="translate(88.162297, 31.069697)"><g><path d="M 1.65625 0 L 1.65625 -12.640625 L 4.5625 -12.640625 L 4.875 -10.28125 C 5.332031 -11.09375 5.957031 -11.738281 6.75 -12.21875 C 7.539062 -12.707031 8.46875 -12.953125 9.53125 -12.953125 L 9.53125 -9.515625 L 8.625 -9.515625 C 7.90625 -9.515625 7.265625 -9.398438 6.703125 -9.171875 C 6.140625 -8.953125 5.703125 -8.570312 5.390625 -8.03125 C 5.078125 -7.488281 4.921875 -6.734375 4.921875 -5.765625 L 4.921875 0 Z M 1.65625 0 "/></g></g></g><g fill="#000000" fill-opacity="1"><g transform="translate(96.982543, 31.069697)"><g><path d="M 3.234375 5.609375 L 6.171875 -0.84375 L 5.40625 -0.84375 L 0.484375 -12.640625 L 4.03125 -12.640625 L 7.578125 -3.75 L 11.265625 -12.640625 L 14.734375 -12.640625 L 6.703125 5.609375 Z M 3.234375 5.609375 "/></g></g></g><g fill="#000000" fill-opacity="1"><g transform="translate(110.926788, 31.069697)"><g><path d="M 1.65625 5.609375 L 1.65625 -12.640625 L 4.5625 -12.640625 L 4.921875 -10.84375 C 5.328125 -11.394531 5.863281 -11.882812 6.53125 -12.3125 C 7.207031 -12.738281 8.082031 -12.953125 9.15625 -12.953125 C 10.34375 -12.953125 11.40625 -12.660156 12.34375 -12.078125 C 13.28125 -11.503906 14.019531 -10.71875 14.5625 -9.71875 C 15.101562 -8.71875 15.375 -7.578125 15.375 -6.296875 C 15.375 -5.023438 15.101562 -3.890625 14.5625 -2.890625 C 14.019531 -1.898438 13.28125 -1.117188 12.34375 -0.546875 C 11.40625 0.0234375 10.34375 0.3125 9.15625 0.3125 C 8.195312 0.3125 7.359375 0.132812 6.640625 -0.21875 C 5.929688 -0.582031 5.359375 -1.085938 4.921875 -1.734375 L 4.921875 5.609375 Z M 8.46875 -2.546875 C 9.5 -2.546875 10.351562 -2.894531 11.03125 -3.59375 C 11.71875 -4.289062 12.0625 -5.191406 12.0625 -6.296875 C 12.0625 -7.398438 11.71875 -8.304688 11.03125 -9.015625 C 10.351562 -9.734375 9.5 -10.09375 8.46875 -10.09375 C 7.414062 -10.09375 6.550781 -9.738281 5.875 -9.03125 C 5.207031 -8.332031 4.875 -7.429688 4.875 -6.328125 C 4.875 -5.222656 5.207031 -4.316406 5.875 -3.609375 C 6.550781 -2.898438 7.414062 -2.546875 8.46875 -2.546875 Z M 8.46875 -2.546875 "/></g></g></g><g fill="#000000" fill-opacity="1"><g transform="translate(126.273115, 31.069697)"><g><path d="M 7.296875 0 C 5.960938 0 4.894531 -0.320312 4.09375 -0.96875 C 3.300781 -1.613281 2.90625 -2.757812 2.90625 -4.40625 L 2.90625 -9.921875 L 0.734375 -9.921875 L 0.734375 -12.640625 L 2.90625 -12.640625 L 3.296875 -16.046875 L 6.171875 -16.046875 L 6.171875 -12.640625 L 9.59375 -12.640625 L 9.59375 -9.921875 L 6.171875 -9.921875 L 6.171875 -4.390625 C 6.171875 -3.773438 6.300781 -3.351562 6.5625 -3.125 C 6.832031 -2.894531 7.289062 -2.78125 7.9375 -2.78125 L 9.515625 -2.78125 L 9.515625 0 Z M 7.296875 0 "/></g></g></g><g fill="#000000" fill-opacity="1"><g transform="translate(135.730674, 31.069697)"><g><path d="M 7.71875 0.3125 C 6.5 0.3125 5.398438 0.03125 4.421875 -0.53125 C 3.441406 -1.09375 2.664062 -1.867188 2.09375 -2.859375 C 1.53125 -3.859375 1.25 -5.015625 1.25 -6.328125 C 1.25 -7.628906 1.535156 -8.773438 2.109375 -9.765625 C 2.691406 -10.765625 3.472656 -11.546875 4.453125 -12.109375 C 5.429688 -12.671875 6.53125 -12.953125 7.75 -12.953125 C 8.957031 -12.953125 10.050781 -12.671875 11.03125 -12.109375 C 12.007812 -11.546875 12.78125 -10.765625 13.34375 -9.765625 C 13.914062 -8.773438 14.203125 -7.628906 14.203125 -6.328125 C 14.203125 -5.015625 13.914062 -3.859375 13.34375 -2.859375 C 12.78125 -1.867188 12.003906 -1.09375 11.015625 -0.53125 C 10.023438 0.03125 8.925781 0.3125 7.71875 0.3125 Z M 7.71875 -2.53125 C 8.570312 -2.53125 9.3125 -2.847656 9.9375 -3.484375 C 10.570312 -4.117188 10.890625 -5.066406 10.890625 -6.328125 C 10.890625 -7.585938 10.570312 -8.535156 9.9375 -9.171875 C 9.3125 -9.804688 8.582031 -10.125 7.75 -10.125 C 6.882812 -10.125 6.140625 -9.804688 5.515625 -9.171875 C 4.898438 -8.535156 4.59375 -7.585938 4.59375 -6.328125 C 4.59375 -5.066406 4.898438 -4.117188 5.515625 -3.484375 C 6.140625 -2.847656 6.875 -2.53125 7.71875 -2.53125 Z M 7.71875 -2.53125 "/></g></g></g><g fill="#000000" fill-opacity="1"><g transform="translate(149.904347, 31.069697)"><g><path d="M 1.296875 0 L 1.296875 -2.375 C 2.390625 -3.269531 3.445312 -4.160156 4.46875 -5.046875 C 5.5 -5.929688 6.414062 -6.804688 7.21875 -7.671875 C 8.03125 -8.535156 8.675781 -9.378906 9.15625 -10.203125 C 9.644531 -11.035156 9.890625 -11.84375 9.890625 -12.625 C 9.890625 -13.351562 9.691406 -14 9.296875 -14.5625 C 8.898438 -15.125 8.238281 -15.40625 7.3125 -15.40625 C 6.382812 -15.40625 5.679688 -15.097656 5.203125 -14.484375 C 4.722656 -13.867188 4.484375 -13.128906 4.484375 -12.265625 L 1.328125 -12.265625 C 1.359375 -13.578125 1.644531 -14.671875 2.1875 -15.546875 C 2.738281 -16.421875 3.460938 -17.070312 4.359375 -17.5 C 5.265625 -17.9375 6.273438 -18.15625 7.390625 -18.15625 C 9.210938 -18.15625 10.628906 -17.65625 11.640625 -16.65625 C 12.648438 -15.664062 13.15625 -14.378906 13.15625 -12.796875 C 13.15625 -11.816406 12.929688 -10.859375 12.484375 -9.921875 C 12.035156 -8.984375 11.441406 -8.082031 10.703125 -7.21875 C 9.972656 -6.351562 9.179688 -5.539062 8.328125 -4.78125 C 7.484375 -4.019531 6.660156 -3.316406 5.859375 -2.671875 L 13.59375 -2.671875 L 13.59375 0 Z M 1.296875 0 "/></g></g></g><g fill="#000000" fill-opacity="1"><g transform="translate(163.185784, 31.069697)"><g><path d="M 9.890625 0 L 9.890625 -3.3125 L 1.09375 -3.3125 L 1.09375 -5.921875 L 9.453125 -17.84375 L 13.15625 -17.84375 L 13.15625 -6.140625 L 15.5 -6.140625 L 15.5 -3.3125 L 13.15625 -3.3125 L 13.15625 0 Z M 4.59375 -6.140625 L 10.09375 -6.140625 L 10.09375 -14.25 Z M 4.59375 -6.140625 "/></g></g></g><g clip-path="url(#805e608703)"><g clip-path="url(#dd795a9958)"><g clip-path="url(#9e2d7c60f7)"><g clip-path="url(#ac8bceffed)"><path fill="#000000" d="M 38.722656 8.164062 C 39.007812 7.730469 39.078125 7.53125 39.417969 7.351562 C 40.007812 7.03125 40.804688 7.027344 40.996094 7.226562 C 41.292969 7.539062 41.101562 7.738281 41.164062 8.21875 C 41.226562 8.699219 41.15625 9.699219 41.15625 9.699219 Z M 38.722656 8.164062 " fill-opacity="1" fill-rule="nonzero"/></g></g></g></g><g clip-path="url(#ef3c4a30da)"><g clip-path="url(#e6c62108b4)"><g clip-path="url(#3154c201fb)"><g clip-path="url(#cc83a95e45)"><path stroke-linecap="butt" transform="matrix(0.0417958, 0.0306774, -0.0304973, 0.0415505, 37.506488, -9.550302)" fill="none" stroke-linejoin="miter" d="M 221.079901 263.106845 C 220.565324 253.051415 219.384986 249.128257 222.618519 242.41633 C 228.134405 230.634866 240.480504 221.425534 245.73033 222.344124 C 253.91295 223.82374 253.210391 229.137071 259.665678 235.934526 C 266.120965 242.731982 276.440417 259.18008 276.440417 259.18008 Z M 221.079901 263.106845 " stroke="#000000" stroke-width="1" stroke-opacity="1" stroke-miterlimit="4"/></g></g></g></g><g clip-path="url(#b2e23d0bfd)"><g clip-path="url(#001c041580)"><g clip-path="url(#d5cfa0f554)"><g clip-path="url(#511d2adf33)"><path stroke-linecap="butt" transform="matrix(0.0417958, 0.0306774, -0.0304973, 0.0415505, 37.506488, -9.550302)" fill-opacity="1" fill="#000000" fill-rule="nonzero" stroke-linejoin="miter" d="M 57.156377 243.774017 C 57.156377 243.774017 63.559235 318.769 49.278298 418.060323 C 36.067653 509.980581 29.305372 505.196015 27.143455 536.688061 C 24.997695 568.074165 29.276332 619.536246 29.276332 619.536246 C 29.276332 619.536246 350.726571 626.636072 439.235891 621.64405 C 527.85053 616.668281 740.704958 580.226107 740.704958 580.226107 C 740.704958 580.226107 739.296153 553.062601 710.049355 538.085243 C 680.697237 523.091633 623.575056 518.071737 590.019706 505.899402 C 556.403618 493.771912 455.702198 469.502605 403.580942 403.066979 C 351.459686 336.631353 304.73284 258.503952 282.175318 248.083025 C 261.215174 250.866588 217.167262 253.774027 161.43995 252.330873 C 105.75722 250.948817 57.156377 243.774017 57.156377 243.774017 Z M 57.156377 243.774017 " stroke="#000000" stroke-width="1" stroke-opacity="1" stroke-miterlimit="4"/></g></g></g></g><g clip-path="url(#83dc32ec58)"><g clip-path="url(#39a5025084)"><g clip-path="url(#465681c65c)"><g clip-path="url(#e1dbc09871)"><path fill="#ffffff" d="M 35.109375 14.804688 C 33.890625 16.46875 31.496094 16.789062 29.765625 15.515625 C 28.035156 14.246094 27.621094 11.867188 28.84375 10.203125 C 30.0625 8.539062 32.457031 8.222656 34.1875 9.492188 C 35.917969 10.761719 36.332031 13.140625 35.109375 14.804688 Z M 35.109375 14.804688 " fill-opacity="1" fill-rule="nonzero"/></g></g></g></g><g clip-path="url(#9512255abc)"><g clip-path="url(#99acca8b77)"><g clip-path="url(#44e7a20b4d)"><g clip-path="url(#2951d6d065)"><path stroke-linecap="butt" transform="matrix(0.0417958, 0.0306774, -0.0304973, 0.0415505, 37.663847, -9.389152)" fill="none" stroke-linejoin="miter" d="M 236.398487 407.739134 C 236.439562 447.757989 202.862429 480.257514 161.421796 480.205824 C 120.025743 480.215232 86.437591 447.760489 86.457255 407.69679 C 86.41618 367.677935 120.037894 335.239506 161.433946 335.230099 C 202.829999 335.220692 236.418151 367.675434 236.398487 407.739134 Z M 236.398487 407.739134 " stroke="#d8d8d8" stroke-width="1" stroke-opacity="1" stroke-miterlimit="4"/></g></g></g></g><g clip-path="url(#064ad56266)"><g clip-path="url(#b090b58ca4)"><g clip-path="url(#a13ebaa38d)"><g clip-path="url(#72cedaed97)"><path stroke-linecap="butt" transform="matrix(0.00647292, 0.004751, -0.00458557, 0.00624753, 33.328027, 20.22616)" fill="none" stroke-linejoin="miter" d="M 236.508339 407.941288 C 236.498471 447.964602 202.798989 480.46947 161.449086 480.026869 C 119.994853 480.288855 86.556525 447.569433 86.566393 407.546118 C 86.57626 367.522804 119.883551 335.316182 161.337785 335.054197 C 203.079879 335.198551 236.518207 367.917973 236.508339 407.941288 Z M 236.508339 407.941288 " stroke="#ffffff" stroke-width="48.764999" stroke-opacity="1" stroke-miterlimit="4"/></g></g></g></g><g clip-path="url(#bac3518591)"><g clip-path="url(#2fcb7de313)"><g clip-path="url(#482d2c5258)"><g clip-path="url(#be7010c709)"><path stroke-linecap="butt" transform="matrix(0.00647292, 0.004751, -0.00458557, 0.00624753, 36.774213, 22.678237)" fill="none" stroke-linejoin="miter" d="M 236.210002 407.710572 C 236.200135 447.733887 202.892844 479.940508 161.438611 480.202494 C 119.984378 480.464479 86.54605 447.745057 86.555917 407.721742 C 86.565785 367.698428 120.265267 335.19356 161.327309 335.229821 C 202.781542 334.967835 236.21987 367.687258 236.210002 407.710572 Z M 236.210002 407.710572 " stroke="#ffffff" stroke-width="48.764999" stroke-opacity="1" stroke-miterlimit="4"/></g></g></g></g><g clip-path="url(#c589f60ac2)"><g clip-path="url(#1f252826cd)"><g clip-path="url(#8deb5b2f65)"><g clip-path="url(#c1ef340e8d)"><path stroke-linecap="butt" transform="matrix(0.00351811, 0.00831847, -0.00665443, 0.00303347, 42.763933, 8.915144)" fill="none" stroke-linejoin="miter" d="M 236.289614 407.610299 C 236.290267 447.527676 202.746666 480.27692 161.462018 480.169829 C 120.177369 480.062738 86.476385 447.57009 86.475732 407.652712 C 86.475079 367.735334 120.018681 334.986091 161.303329 335.093182 C 202.981664 335.408409 236.288961 367.692921 236.289614 407.610299 Z M 236.289614 407.610299 " stroke="#ffffff" stroke-width="48.766998" stroke-opacity="1" stroke-miterlimit="4"/></g></g></g></g><g clip-path="url(#e762920ae7)"><g clip-path="url(#c11cd472f4)"><g clip-path="url(#dd6fede4fa)"><g clip-path="url(#6adf4a94d4)"><path stroke-linecap="butt" transform="matrix(0.00351811, 0.00831847, -0.00665443, 0.00303347, 42.332002, 12.319768)" fill="none" stroke-linejoin="miter" d="M 236.377132 407.90647 C 236.377785 447.823848 203.013649 480.080957 161.549535 480.466001 C 119.8712 480.150773 86.563903 447.866262 86.56325 407.948884 C 86.16891 367.823369 120.106198 335.282263 161.390846 335.389353 C 202.85496 335.00431 236.555944 367.496958 236.377132 407.90647 Z M 236.377132 407.90647 " stroke="#ffffff" stroke-width="48.766998" stroke-opacity="1" stroke-miterlimit="4"/></g></g></g></g><g clip-path="url(#2228e4d97d)"><g clip-path="url(#d2d478b773)"><g clip-path="url(#ef4bd83196)"><g clip-path="url(#b05df44453)"><path stroke-linecap="butt" transform="matrix(0.00351811, 0.00831847, -0.00665443, 0.00303347, 42.212448, 15.611615)" fill="none" stroke-linejoin="miter" d="M 236.598934 407.668051 C 236.599587 447.585428 202.662299 480.126535 161.377651 480.019444 C 119.913537 480.404488 86.212553 447.911839 86.391365 407.502327 C 86.390712 367.584949 119.754848 335.32784 161.612649 335.150934 C 202.897297 335.258024 236.598281 367.750673 236.598934 407.668051 Z M 236.598934 407.668051 " stroke="#ffffff" stroke-width="48.766998" stroke-opacity="1" stroke-miterlimit="4"/></g></g></g></g><g clip-path="url(#1bccca0570)"><g clip-path="url(#680b45359a)"><g clip-path="url(#020e27621e)"><g clip-path="url(#ff5514c825)"><path stroke-linecap="butt" transform="matrix(0.00341846, 0.00840517, -0.00674847, 0.00318438, 42.810515, 18.92638)" fill="none" stroke-linejoin="miter" d="M 236.32569 407.677111 C 236.497702 447.703844 202.73869 480.382898 161.412755 480.287163 C 120.08682 480.191428 86.452975 447.525555 86.670878 407.696334 C 86.498866 367.669601 120.07389 335.476182 161.583813 335.086282 C 202.909748 335.182017 236.543593 367.84789 236.32569 407.677111 Z M 236.32569 407.677111 " stroke="#ffffff" stroke-width="48.766998" stroke-opacity="1" stroke-miterlimit="4"/></g></g></g></g><g clip-path="url(#4138130edb)"><g clip-path="url(#535193f44e)"><g clip-path="url(#8e5b7fb593)"><g clip-path="url(#bbcfa8cc93)"><path stroke-linecap="butt" transform="matrix(0.00482542, 0.00769307, -0.00608568, 0.00430893, 43.57236, 21.649121)" fill="none" stroke-linejoin="miter" d="M 236.489456 408.015799 C 236.525052 447.840324 202.721455 480.089534 161.544584 480.17546 C 120.016106 479.98259 86.392708 447.545226 86.357112 407.720701 C 86.321516 367.896176 120.022459 334.923694 161.550937 335.116563 C 202.727808 335.030637 236.351206 367.468002 236.489456 408.015799 Z M 236.489456 408.015799 " stroke="#ffffff" stroke-width="48.766998" stroke-opacity="1" stroke-miterlimit="4"/></g></g></g></g><g clip-path="url(#3f6fa31786)"><g clip-path="url(#d38b0b8d7a)"><g clip-path="url(#39cbd15627)"><g clip-path="url(#0e3e80c833)"><path stroke-linecap="butt" transform="matrix(0.00503984, 0.00707236, -0.0052571, 0.00327205, 44.970291, 24.992177)" fill="none" stroke-linejoin="miter" d="M 236.655868 407.728388 C 236.422499 447.628985 203.077339 480.306594 161.520901 480.591846 C 120.202609 480.36236 86.53196 448.08319 86.382708 407.815785 C 86.233456 367.548379 119.961237 335.237579 161.517675 334.952326 C 202.835967 335.181813 236.506616 367.460982 236.655868 407.728388 Z M 236.655868 407.728388 " stroke="#ffffff" stroke-width="48.766998" stroke-opacity="1" stroke-miterlimit="4"/></g></g></g></g><g clip-path="url(#fa62425e11)"><g clip-path="url(#14a8d89086)"><g clip-path="url(#3595fc814d)"><g clip-path="url(#94ecf679be)"><path stroke-linecap="butt" transform="matrix(0.00503984, 0.00707236, -0.0052571, 0.00327205, 46.992217, 27.494719)" fill="none" stroke-linejoin="miter" d="M 236.260929 407.805294 C 236.410181 448.0727 202.6824 480.3835 161.364108 480.154013 C 120.045815 479.924527 86.375166 447.645357 86.608535 407.74476 C 86.459283 367.477354 120.187064 335.166555 161.505357 335.396041 C 203.061794 335.110788 236.494298 367.904697 236.260929 407.805294 Z M 236.260929 407.805294 " stroke="#ffffff" stroke-width="48.766998" stroke-opacity="1" stroke-miterlimit="4"/></g></g></g></g><g clip-path="url(#ee54e84036)"><g clip-path="url(#0e5ea921ea)"><g clip-path="url(#92119e2c42)"><g clip-path="url(#476f717add)"><path stroke-linecap="butt" transform="matrix(0.00625548, 0.00600757, -0.00428197, 0.00369943, 48.574384, 29.960273)" fill="none" stroke-linejoin="miter" d="M 236.655484 407.799667 C 236.308376 447.431848 202.84725 480.651851 161.42268 480.343988 C 119.998109 480.036125 86.607099 447.676121 86.611914 407.543889 C 86.321005 367.89189 120.124423 335.171938 161.548993 335.479802 C 202.631272 335.287614 236.6603 367.667435 236.655484 407.799667 Z M 236.655484 407.799667 " stroke="#ffffff" stroke-width="48.766998" stroke-opacity="1" stroke-miterlimit="4"/></g></g></g></g><g clip-path="url(#d247758e1f)"><g clip-path="url(#81dbc3e5af)"><g clip-path="url(#e60609cd2a)"><g clip-path="url(#e05070612b)"><path fill="#ffffff" d="M 54.253906 38.296875 C 54.355469 37.597656 54.277344 36.921875 53.84375 36.410156 C 52.953125 35.347656 50.726562 33.996094 50.027344 33.597656 C 49.332031 33.199219 50.183594 36.1875 50.640625 37.207031 C 51.351562 37.386719 53.589844 38.496094 54.253906 38.296875 Z M 54.253906 38.296875 " fill-opacity="1" fill-rule="nonzero"/></g></g></g></g><g clip-path="url(#9e1c5bd1a8)"><g clip-path="url(#68416d26ad)"><g clip-path="url(#81befba933)"><g clip-path="url(#27e825f90e)"><path stroke-linecap="butt" transform="matrix(0.0417958, 0.0306774, -0.0304973, 0.0415505, 37.506488, -9.550302)" fill="none" stroke-linejoin="miter" d="M 806.474886 556.110291 C 800.074083 544.007928 791.146789 534.334986 778.564684 531.30896 C 752.590232 524.915 702.544172 529.33659 687.124691 531.131796 C 671.765948 532.882158 719.111471 569.845514 737.853544 580.54512 C 750.958702 575.193934 798.422953 566.849781 806.474886 556.110291 Z M 806.474886 556.110291 " stroke="#000000" stroke-width="5" stroke-opacity="1" stroke-miterlimit="4"/></g></g></g></g><g clip-path="url(#bbc29cd160)"><g clip-path="url(#2bcb373998)"><g clip-path="url(#4a9c7e82ab)"><g clip-path="url(#4551ee88b9)"><path stroke-linecap="butt" transform="matrix(0.0417958, 0.0306774, -0.0304973, 0.0415505, 37.506488, -9.550302)" fill-opacity="1" fill="#ffffff" fill-rule="nonzero" stroke-linejoin="round" d="M 21.071056 602.655363 C 21.071056 602.655363 222.452871 610.690259 365.543842 608.645334 C 507.383243 606.678355 731.386235 583.72183 807.160106 548.083409 C 809.455561 554.943745 817.692909 561.365599 820.580183 569.29318 C 823.994647 578.711771 833.537252 616.510117 827.799642 630.805587 C 822.12277 645.056213 728.590319 668.140753 657.148451 679.616075 C 585.722741 690.985455 489.924542 691.111646 414.200531 691.082645 C 338.5211 691.114741 174.232695 699.972923 111.368177 697.970527 C 48.398339 695.951878 29.419567 690.691712 17.223472 680.89385 C 15.296096 663.138381 21.071056 602.655363 21.071056 602.655363 Z M 21.071056 602.655363 " stroke="#000000" stroke-width="5" stroke-opacity="1" stroke-miterlimit="4"/></g></g></g></g><g clip-path="url(#4f4f9d1133)"><g clip-path="url(#afdccdb7e8)"><g clip-path="url(#a5dc55c14a)"><g clip-path="url(#e1e69fd60f)"><path stroke-linecap="butt" transform="matrix(0.0417958, 0.0306774, -0.0304973, 0.0415505, 37.506488, -9.550302)" fill="none" stroke-linejoin="miter" d="M 605.726556 590.571241 C 613.220552 620.950952 621.780254 662.013318 623.95684 684.849473 " stroke="#000000" stroke-width="6" stroke-opacity="1" stroke-miterlimit="4"/></g></g></g></g><g clip-path="url(#918e105763)"><g clip-path="url(#02b110b54a)"><g clip-path="url(#b6b52b8dd3)"><g clip-path="url(#1da2108969)"><path stroke-linecap="butt" transform="matrix(0.0417958, 0.0306774, -0.0304973, 0.0415505, 37.506488, -9.550302)" fill="none" stroke-linejoin="miter" d="M 20.723617 614.475379 L 35.375318 617.007524 L 34.66432 689.169732 " stroke="#000000" stroke-width="5" stroke-opacity="1" stroke-miterlimit="4"/></g></g></g></g><g clip-path="url(#bb5242bc33)"><g clip-path="url(#3bfff3a622)"><g clip-path="url(#7d2d3da16f)"><g clip-path="url(#8932a639d2)"><path stroke-linecap="butt" transform="matrix(0.0417958, 0.0306774, -0.0304973, 0.0415505, 37.506488, -9.550302)" fill="none" stroke-linejoin="miter" d="M 34.656395 660.595886 C 34.656395 660.595886 50.986609 666.965415 77.262391 667.496168 C 103.538173 668.026921 235.372205 664.515908 275.804222 664.466165 C 311.65513 664.414291 440.427698 662.599532 488.943618 660.435816 C 541.424887 658.070771 619.243373 649.314452 619.243373 649.314452 " stroke="#000000" stroke-width="8" stroke-opacity="1" stroke-miterlimit="4"/></g></g></g></g><g clip-path="url(#044e16917a)"><g clip-path="url(#ee49e4acd5)"><g clip-path="url(#2a7383ffe4)"><g clip-path="url(#5cea0947ea)"><path stroke-linecap="round" transform="matrix(0.0417958, 0.0306774, -0.0304973, 0.0415505, 37.506488, -9.550302)" fill="none" stroke-linejoin="miter" d="M 234.338261 256.044341 C 269.990486 313.486576 277.691718 364.772006 328.715543 422.146605 C 379.783949 479.582302 421.194772 514.81655 491.474373 532.873058 C 561.798554 550.990663 714.919324 570.120278 714.919324 570.120278 " stroke="#ffffff" stroke-width="4.874" stroke-opacity="1" stroke-miterlimit="4"/></g></g></g></g><g clip-path="url(#aa4663f4b8)"><g clip-path="url(#15b41de19a)"><g clip-path="url(#b70dec3c64)"><g clip-path="url(#7188c591a8)"><path fill="#ffffff" d="M 40.632812 11.226562 C 40.546875 11.488281 40.566406 11.558594 40.550781 11.738281 C 41.53125 12.386719 41.914062 12.097656 42.539062 12.554688 C 42.65625 12.332031 42.710938 11.625 42.550781 11.308594 C 41.738281 10.972656 41.5 11.023438 40.632812 11.226562 Z M 40.632812 11.226562 " fill-opacity="1" fill-rule="nonzero"/></g></g></g></g><g clip-path="url(#a190954a12)"><g clip-path="url(#b95585ebd9)"><g clip-path="url(#05bac94bf3)"><g clip-path="url(#ea9dcca2fd)"><path stroke-linecap="butt" transform="matrix(0.0417958, 0.0306774, -0.0304973, 0.0415505, 37.506488, -9.550302)" fill="none" stroke-linejoin="round" d="M 285.732631 289.078247 C 287.383312 294.158339 288.489464 295.033868 290.297237 298.02372 C 312.943087 296.90995 315.596475 287.994012 330.530638 287.967306 C 329.811677 283.139433 322.592848 271.453007 316.491499 268.342744 C 300.023895 272.415991 296.898392 275.945757 285.732631 289.078247 Z M 285.732631 289.078247 " stroke="#000000" stroke-width="3" stroke-opacity="1" stroke-miterlimit="4"/></g></g></g></g><g clip-path="url(#ff824ac185)"><g clip-path="url(#1da2b8d9ee)"><g clip-path="url(#641cc9c470)"><g clip-path="url(#6c77f239e2)"><path fill="#ffffff" d="M 40.183594 14.59375 C 40.097656 14.855469 40.164062 14.953125 40.144531 15.132812 C 41.128906 15.777344 41.476562 15.542969 42.105469 16 C 42.21875 15.777344 42.273438 15.070312 42.117188 14.753906 C 41.300781 14.417969 41.050781 14.390625 40.183594 14.59375 Z M 40.183594 14.59375 " fill-opacity="1" fill-rule="nonzero"/></g></g></g></g><g clip-path="url(#dbc2fbd02b)"><g clip-path="url(#b2611482dd)"><g clip-path="url(#cf9efbc097)"><g clip-path="url(#c4c0d90a43)"><path stroke-linecap="butt" transform="matrix(0.0417958, 0.0306774, -0.0304973, 0.0415505, 37.506488, -9.550302)" fill="none" stroke-linejoin="round" d="M 317.176552 346.901187 C 318.827233 351.981279 320.974316 352.746358 322.721351 355.781053 C 345.383358 354.561342 348.114233 346.904364 363.109134 346.832814 C 362.329435 342.049785 355.110606 330.363359 349.069996 327.208252 C 332.541653 331.326343 328.342313 333.768697 317.176552 346.901187 Z M 317.176552 346.901187 " stroke="#000000" stroke-width="3" stroke-opacity="1" stroke-miterlimit="4"/></g></g></g></g><g clip-path="url(#fa70360745)"><g clip-path="url(#83095ecd76)"><g clip-path="url(#b2b1fc8aa2)"><g clip-path="url(#9668858445)"><path fill="#ffffff" d="M 40.222656 17.929688 C 40.140625 18.191406 40.050781 18.253906 40.035156 18.429688 C 41.253906 18.398438 41.652344 18.648438 42.433594 18.648438 C 42.546875 18.421875 42.546875 17.855469 42.386719 17.542969 C 41.574219 17.207031 41.089844 17.726562 40.222656 17.929688 Z M 40.222656 17.929688 " fill-opacity="1" fill-rule="nonzero"/></g></g></g></g><g clip-path="url(#daea58922f)"><g clip-path="url(#9400f47fb6)"><g clip-path="url(#54bab9772c)"><g clip-path="url(#6fbef00954)"><path stroke-linecap="butt" transform="matrix(0.0417958, 0.0306774, -0.0304973, 0.0415505, 37.506488, -9.550302)" fill="none" stroke-linejoin="round" d="M 355.856153 398.629813 C 357.567572 403.66506 356.883881 405.674035 358.647073 408.602789 C 377.240877 394.122593 386.289404 393.458701 398.437129 384.489843 C 397.612849 379.645717 391.148597 370.786613 385.091829 367.737447 C 368.624225 371.810694 367.021914 385.497323 355.856153 398.629813 Z M 355.856153 398.629813 " stroke="#000000" stroke-width="3" stroke-opacity="1" stroke-miterlimit="4"/></g></g></g></g><g clip-path="url(#73eac3f716)"><g clip-path="url(#622ccd90e4)"><g clip-path="url(#ec8e059799)"><g clip-path="url(#fc85c89d03)"><path fill="#ffffff" d="M 40.625 21.277344 C 40.542969 21.539062 40.5625 21.609375 40.542969 21.789062 C 41.355469 22.148438 42.277344 21.871094 42.742188 21.921875 C 42.855469 21.699219 42.722656 21.292969 42.5625 20.976562 C 41.75 20.640625 40.851562 20.941406 40.625 21.277344 Z M 40.625 21.277344 " fill-opacity="1" fill-rule="nonzero"/></g></g></g></g><g clip-path="url(#23f04ff6e8)"><g clip-path="url(#8299fed799)"><g clip-path="url(#4ca35ec3d8)"><g clip-path="url(#809b1f8a53)"><path stroke-linecap="butt" transform="matrix(0.0417958, 0.0306774, -0.0304973, 0.0415505, 37.506488, -9.550302)" fill="none" stroke-linejoin="round" d="M 400.31819 446.371211 C 402.029609 451.406458 403.135761 452.281988 404.882796 455.316684 C 421.617887 451.61002 432.786949 436.688862 440.594399 432.146656 C 439.814699 427.363627 433.113157 422.534217 427.011808 419.423954 C 410.544204 423.497201 400.00706 438.515877 400.31819 446.371211 Z M 400.31819 446.371211 " stroke="#000000" stroke-width="3" stroke-opacity="1" stroke-miterlimit="4"/></g></g></g></g><g clip-path="url(#6f7c3038fa)"><g clip-path="url(#978676ff45)"><g clip-path="url(#92546fbdf7)"><g clip-path="url(#9316d73e9e)"><path stroke-linecap="butt" transform="matrix(0.0417958, 0.0306774, -0.0304973, 0.0415505, 37.506488, -9.550302)" fill-opacity="1" fill="#ffffff" fill-rule="nonzero" stroke-linejoin="round" d="M 453.503586 481.091164 C 455.198847 486.232353 457.394403 486.679607 462.356693 487.716478 C 478.016175 478.693163 478.007557 467.794115 481.005327 459.093975 C 480.181047 454.249849 468.692828 451.826372 462.63606 448.777206 C 457.399926 461.198234 458.161939 472.105111 453.503586 481.091164 Z M 453.503586 481.091164 " stroke="#000000" stroke-width="3" stroke-opacity="1" stroke-miterlimit="4"/></g></g></g></g><g clip-path="url(#eea9bfba5c)"><g clip-path="url(#d772cb922a)"><g clip-path="url(#e6b597d805)"><g clip-path="url(#2ccc566a45)"><path stroke-linecap="butt" transform="matrix(0.0417958, 0.0306774, -0.0304973, 0.0415505, 37.506488, -9.550302)" fill-opacity="1" fill="#ffffff" fill-rule="nonzero" stroke-linejoin="round" d="M 511.817086 506.572251 C 515.532289 508.717891 519.951824 509.779438 524.816578 510.042211 C 529.076412 497.307868 530.404634 486.831992 530.198234 477.583165 C 527.875537 473.375282 516.338254 469.859884 509.626219 468.986732 C 513.980776 479.309444 513.141417 496.475297 511.817086 506.572251 Z M 511.817086 506.572251 " stroke="#000000" stroke-width="3" stroke-opacity="1" stroke-miterlimit="4"/></g></g></g></g><g clip-path="url(#19ae654120)"><g clip-path="url(#b392558c87)"><g clip-path="url(#57e7fa40fb)"><g clip-path="url(#b218d49664)"><path stroke-linecap="butt" transform="matrix(0.0417958, 0.0306774, -0.0304973, 0.0415505, 37.506488, -9.550302)" fill-opacity="1" fill="#ffffff" fill-rule="nonzero" stroke-linejoin="round" d="M 572.921609 522.94177 C 576.908781 526.484817 579.371823 527.298655 584.195297 525.711663 C 590.789503 516.048436 587.260755 504.551942 583.426785 499.297577 C 580.330643 495.566729 573.22127 493.76478 566.481401 494.134335 C 567.121347 503.721155 569.575668 512.720489 572.921609 522.94177 Z M 572.921609 522.94177 " stroke="#000000" stroke-width="3" stroke-opacity="1" stroke-miterlimit="4"/></g></g></g></g><g clip-path="url(#26167bf476)"><g clip-path="url(#2b4f5a8fe0)"><g clip-path="url(#6fc65b9af8)"><g clip-path="url(#1562b9e05d)"><path stroke-linecap="butt" transform="matrix(0.0417958, 0.0306774, -0.0304973, 0.0415505, 37.506488, -9.550302)" fill-opacity="1" fill="#ffffff" fill-rule="nonzero" stroke-linejoin="round" d="M 634.474653 536.723846 C 638.506406 540.327991 640.669056 539.577382 645.537111 538.051487 C 651.504472 530.731313 650.587138 526.143914 648.05262 519.084033 C 644.911897 515.292088 632.779494 512.498113 625.978887 512.912512 C 627.18824 518.412455 634.020815 526.623572 634.474653 536.723846 Z M 634.474653 536.723846 " stroke="#000000" stroke-width="3" stroke-opacity="1" stroke-miterlimit="4"/></g></g></g></g><g clip-path="url(#4824b48c7c)"><g clip-path="url(#57e6194250)"><g clip-path="url(#72cc404c44)"><g clip-path="url(#ed0df676de)"><path fill="#040606" d="M 34.730469 15.195312 L 34.585938 15.03125 C 34.476562 15.144531 34.359375 15.25 34.238281 15.347656 L 34.386719 15.507812 C 34.257812 15.609375 34.121094 15.703125 33.984375 15.785156 L 33.882812 15.59375 C 33.75 15.675781 33.609375 15.746094 33.46875 15.808594 L 33.566406 16 C 33.417969 16.066406 33.261719 16.121094 33.105469 16.164062 L 33.0625 15.953125 C 32.910156 15.996094 32.757812 16.027344 32.605469 16.050781 L 32.652344 16.261719 C 32.488281 16.289062 32.328125 16.300781 32.164062 16.304688 L 32.171875 16.089844 C 32.019531 16.089844 31.863281 16.082031 31.707031 16.066406 L 31.695312 16.28125 C 31.535156 16.265625 31.375 16.234375 31.214844 16.195312 L 31.28125 15.988281 C 31.132812 15.953125 30.984375 15.902344 30.835938 15.847656 L 30.769531 16.054688 C 30.621094 15.996094 30.472656 15.925781 30.328125 15.84375 L 30.445312 15.660156 C 30.378906 15.625 30.3125 15.585938 30.246094 15.542969 C 30.179688 15.5 30.117188 15.453125 30.054688 15.40625 L 29.9375 15.59375 C 29.800781 15.492188 29.675781 15.386719 29.5625 15.277344 L 29.722656 15.128906 C 29.609375 15.019531 29.503906 14.90625 29.410156 14.785156 L 29.25 14.929688 C 29.144531 14.800781 29.054688 14.667969 28.96875 14.527344 L 29.164062 14.429688 C 29.082031 14.292969 29.011719 14.15625 28.949219 14.011719 L 28.757812 14.113281 C 28.691406 13.960938 28.636719 13.808594 28.59375 13.652344 L 28.804688 13.605469 C 28.761719 13.457031 28.726562 13.304688 28.707031 13.148438 L 28.492188 13.195312 C 28.46875 13.035156 28.453125 12.871094 28.453125 12.707031 L 28.667969 12.71875 C 28.664062 12.5625 28.671875 12.40625 28.691406 12.253906 L 28.472656 12.242188 C 28.492188 12.082031 28.519531 11.921875 28.5625 11.761719 L 28.769531 11.828125 C 28.804688 11.675781 28.851562 11.527344 28.910156 11.382812 L 28.703125 11.316406 C 28.761719 11.164062 28.832031 11.019531 28.910156 10.875 L 29.097656 10.992188 C 29.132812 10.921875 29.171875 10.855469 29.214844 10.789062 C 29.257812 10.722656 29.300781 10.660156 29.347656 10.597656 L 29.164062 10.480469 C 29.261719 10.347656 29.367188 10.222656 29.480469 10.105469 L 29.628906 10.269531 C 29.734375 10.15625 29.851562 10.050781 29.972656 9.953125 L 29.828125 9.792969 C 29.953125 9.691406 30.089844 9.597656 30.230469 9.515625 L 30.328125 9.707031 C 30.460938 9.628906 30.601562 9.554688 30.742188 9.496094 L 30.644531 9.300781 C 30.792969 9.238281 30.949219 9.183594 31.105469 9.136719 L 31.152344 9.347656 C 31.300781 9.304688 31.453125 9.273438 31.605469 9.25 L 31.5625 9.039062 C 31.722656 9.015625 31.882812 9 32.046875 8.996094 L 32.039062 9.214844 C 32.191406 9.210938 32.347656 9.21875 32.503906 9.234375 L 32.515625 9.019531 C 32.675781 9.035156 32.835938 9.066406 32.996094 9.105469 L 32.929688 9.3125 C 33.078125 9.351562 33.226562 9.398438 33.375 9.457031 L 33.441406 9.246094 C 33.589844 9.304688 33.738281 9.375 33.882812 9.457031 L 33.765625 9.640625 C 33.832031 9.679688 33.898438 9.71875 33.964844 9.761719 C 34.03125 9.800781 34.09375 9.847656 34.15625 9.894531 L 34.277344 9.710938 C 34.410156 9.808594 34.535156 9.914062 34.648438 10.027344 L 34.488281 10.171875 C 34.601562 10.28125 34.707031 10.398438 34.800781 10.519531 L 34.964844 10.371094 C 35.066406 10.5 35.160156 10.632812 35.242188 10.773438 L 35.046875 10.875 C 35.128906 11.007812 35.199219 11.144531 35.261719 11.289062 L 35.453125 11.1875 C 35.519531 11.339844 35.574219 11.492188 35.621094 11.648438 L 35.40625 11.695312 C 35.449219 11.84375 35.484375 11.996094 35.507812 12.152344 L 35.71875 12.105469 C 35.742188 12.265625 35.757812 12.429688 35.757812 12.59375 L 35.542969 12.582031 C 35.546875 12.738281 35.539062 12.894531 35.519531 13.050781 L 35.738281 13.058594 C 35.71875 13.222656 35.691406 13.382812 35.652344 13.542969 L 35.441406 13.476562 C 35.40625 13.625 35.359375 13.773438 35.300781 13.917969 L 35.507812 13.984375 C 35.449219 14.136719 35.378906 14.285156 35.300781 14.429688 L 35.117188 14.308594 C 35.078125 14.378906 35.039062 14.445312 34.996094 14.511719 C 34.953125 14.578125 34.910156 14.640625 34.863281 14.703125 L 35.046875 14.820312 C 34.949219 14.953125 34.84375 15.078125 34.730469 15.195312 Z M 34.335938 9.183594 C 32.425781 7.953125 29.867188 8.507812 28.640625 10.421875 C 27.410156 12.332031 27.964844 14.886719 29.875 16.117188 C 31.785156 17.347656 34.34375 16.792969 35.574219 14.882812 C 36.800781 12.96875 36.25 10.414062 34.335938 9.183594 " fill-opacity="1" fill-rule="nonzero"/></g></g></g></g><g clip-path="url(#593b621085)"><g clip-path="url(#7f52c71dbf)"><g clip-path="url(#3dd929ee92)"><g clip-path="url(#e3934a85ef)"><path fill="#040606" d="M 30.441406 15.234375 C 29.019531 14.316406 28.605469 12.414062 29.519531 10.988281 C 30.4375 9.5625 32.34375 9.148438 33.769531 10.066406 C 35.195312 10.984375 35.605469 12.886719 34.691406 14.3125 C 33.773438 15.738281 31.867188 16.152344 30.441406 15.234375 Z M 33.851562 9.9375 C 32.355469 8.972656 30.355469 9.40625 29.390625 10.902344 C 28.425781 12.402344 28.863281 14.402344 30.359375 15.367188 C 31.855469 16.328125 33.859375 15.894531 34.820312 14.398438 C 35.785156 12.902344 35.351562 10.898438 33.851562 9.9375 " fill-opacity="1" fill-rule="nonzero"/></g></g></g></g><g clip-path="url(#f518f28296)"><g clip-path="url(#54a84bbb78)"><g clip-path="url(#f5d0efb464)"><g clip-path="url(#5841dbb452)"><path fill="#040606" d="M 31.773438 13.800781 L 31.089844 13.359375 L 31.664062 12.46875 L 32.347656 12.910156 C 32.59375 13.070312 32.664062 13.398438 32.507812 13.644531 C 32.347656 13.886719 32.019531 13.960938 31.773438 13.800781 Z M 32.367188 11.375 L 32.917969 11.730469 C 33.121094 11.863281 33.183594 12.136719 33.050781 12.34375 C 32.929688 12.53125 32.691406 12.597656 32.492188 12.507812 L 31.890625 12.117188 Z M 32.875 12.871094 C 33.0625 12.824219 33.230469 12.707031 33.34375 12.53125 C 33.5625 12.195312 33.492188 11.757812 33.199219 11.503906 L 33.472656 11.078125 L 33.109375 10.847656 L 32.839844 11.261719 L 32.558594 11.082031 L 32.824219 10.664062 L 32.464844 10.429688 L 32.195312 10.847656 L 31.867188 10.636719 L 31.675781 10.929688 L 31.914062 11.082031 L 30.636719 13.070312 L 30.398438 12.914062 L 30.171875 13.265625 L 30.5 13.480469 L 30.234375 13.898438 L 30.59375 14.128906 L 30.863281 13.710938 L 31.148438 13.894531 L 30.878906 14.3125 L 31.242188 14.546875 L 31.507812 14.128906 L 31.546875 14.152344 C 31.988281 14.4375 32.574219 14.308594 32.859375 13.871094 C 33.058594 13.554688 33.054688 13.171875 32.875 12.871094 " fill-opacity="1" fill-rule="nonzero"/></g></g></g></g></svg>