<?xml version="1.0" encoding="utf-8"?>
<!-- Generator: Adobe Illustrator 19.2.1, SVG Export Plug-In . SVG Version: 6.00 Build 0)  -->
<svg version="1.1" id="layer" xmlns="http://www.w3.org/2000/svg" xmlns:xlink="http://www.w3.org/1999/xlink" x="0px" y="0px"
	 viewBox="0 0 652 652" style="enable-background:new 0 0 652 652;" xml:space="preserve">
<style type="text/css">
	.st0{fill-rule:evenodd;clip-rule:evenodd;}
	.st1{fill-rule:evenodd;clip-rule:evenodd;fill:#FFB347;}
	.st2{fill-rule:evenodd;clip-rule:evenodd;fill:#FF9332;}
	.st3{fill-rule:evenodd;clip-rule:evenodd;fill:#EA5237;}
</style>
<path class="st0" d="M195.1,327.5c0,14,6.5,26,21.9,26c12.1,0,20.1-7.6,20.1-17.2h4.1v0.1c0,11.2-9.5,20.8-24.2,20.8
	c-18.3,0-26.1-13.4-26.1-30.2v-11.7c0-16.7,8.1-30.3,25.9-30.3c15.4,0,23.9,10.9,23.9,21.1v0.1h-4.1c-0.1-8.2-7.2-17.4-19.9-17.4
	c-15,0-21.7,11.9-21.7,26V327.5z M259.7,326.8v6.6c0,13.1,7.3,20.1,17.4,20.1c9.9,0,17.3-6.8,17.3-20.1v-6.6
	c0-13.1-7.4-20.2-17.4-20.2C267,306.6,259.7,313.6,259.7,326.8 M298.5,326.4v7.5c0,14.9-9,23.4-21.5,23.4
	c-12.4,0-21.4-8.5-21.4-23.4v-7.5c0-15,8.8-23.5,21.4-23.5C289.4,302.8,298.5,311.6,298.5,326.4 M315.8,357.2h4.1v-52.6h-4.1V357.2z
	 M317.9,287.2c2,0,3.6,1.6,3.6,3.6c0,2-1.6,3.6-3.6,3.6c-2,0-3.6-1.6-3.6-3.6C314.3,288.8,315.8,287.2,317.9,287.2L317.9,287.2z
	 M339.6,304.6h4.1v9.7h0.2c1.7-5,7.1-10.6,16.9-10.6c10.6,0,18.3,6.8,18.3,19v34.4H375v-33.9c0-9.1-5.4-15.7-14.8-15.7
	c-11,0-16.5,8.6-16.5,17.6v32h-4.1V304.6z M400.3,337.3c0.7,6.9,6.4,13,17.8,13c10,0,16.6-5,16.6-13c0-6.3-3.9-9.6-12-11.8l-12-3.2
	c-8.2-2.2-16-7.4-16-17.9c0-12.7,11.3-19.7,23.5-19.7c11.6,0,23.2,6.1,23.5,19.3h-7.6c-0.6-6.8-5.7-12.4-16-12.4
	c-9.1,0-15.6,4.4-15.6,12.2c0,5.4,3.3,9.2,10.3,11l11.7,3.2c10.9,2.9,18.1,7.8,18.1,18.7c0,13.4-11.3,20.4-25.4,20.4
	c-18,0-24.3-11.1-24.5-19.9H400.3z M460.6,290.2h7.5v13.4h10.9v6.3H468v32.7c0,6.6,2.1,8.2,8.9,8.2c0.9,0,1.7,0,2.4-0.1v6.1
	c-1.4,0.2-2.9,0.4-4.3,0.4c-12.1,0-14.5-4.8-14.5-15V290.2z M526.6,338.6v-6.5h-14.2c-7.8,0-11.1,3.7-11.1,8.9
	c0,6.6,5.4,9.8,11.4,9.8C520.7,350.7,526.6,345.8,526.6,338.6 M511,357.2c-10.3,0-17.4-6.4-17.4-16.1c0-9.2,6.4-15.1,18.5-15.1h14.5
	v-5.7c0-7.5-4.4-11.5-11.9-11.5c-7.3,0-11.3,3.6-11.9,9.2h-7.1c0.6-9.2,7-15.7,19.3-15.7c11.1,0,19.1,6.1,19.1,17.1v37h-7.3v-6.9
	h-0.2C524.1,353.7,519.1,357.2,511,357.2 M550.3,290.2h7.5v13.4h10.9v6.3h-10.9v32.7c0,6.6,2.1,8.2,8.9,8.2c0.9,0,1.7,0,2.4-0.1v6.1
	c-1.4,0.2-2.9,0.4-4.3,0.4c-12.1,0-14.5-4.8-14.5-15V290.2z M601.4,302.3c12.5,0,18.5,7.4,18.5,15.7h-7.1c-0.3-4.1-2.9-9.3-11.8-9.3
	c-6.6,0-11.6,2.9-11.6,8.6c0,6.1,6.8,7.6,13.2,8.9c9.9,1.8,18.5,4.3,18.5,14.8c0,10.5-8.6,16.3-20.7,16.3c-11.6,0-19.5-5.8-19.5-15
	h7.3c0.7,4.9,5,8.6,12.7,8.6c8.5,0,12.6-4,12.6-9c0-6.3-5.8-7.5-13.6-9.1c-10-2.2-18.1-5.1-18.1-14.6
	C582.1,307.2,591.3,302.3,601.4,302.3"/>
<path class="st1" d="M51.1,351.1L38,364.2c-10.8-11.7-16.7-27.1-16.7-43.2c0-17.1,6.6-33.2,18.6-45.2c7.3-7.2,16.1-12.6,25.9-15.7
	l4,18.2c-6.4,2.3-12.1,5.9-16.9,10.7c-8.3,8.3-13,19.4-13.3,31.1C39.4,331.4,43.5,342.5,51.1,351.1"/>
<path class="st2" d="M85,320.9l-13.9-62.3c10.4-2.3,21.2-1.9,31.5,1c10.5,3,20,8.7,27.7,16.4c7.9,7.9,13.5,17.7,16.4,28.4
	c2.6,9.9,2.9,20.5,0.6,30.5L85,320.9z M85,320.9"/>
<path class="st3" d="M116.9,376.2c-14.9,8.6-32,10.9-48.4,6.5c-10-2.7-19.1-7.7-26.7-14.7l13.1-13.1c8.3,7.4,19,11.4,30.1,11.4
	c12,0,23.5-4.8,32-13.3c4.8-4.8,8.4-10.5,10.7-16.9l18.3,4.1C141.2,355.4,130.9,368.1,116.9,376.2"/>
</svg>
