<svg xmlns="http://www.w3.org/2000/svg" xmlns:xlink="http://www.w3.org/1999/xlink" width="260" zoomAndPan="magnify" viewBox="0 0 194.87999 44.999999" height="60" preserveAspectRatio="xMidYMid meet" version="1.0"><defs><g/><clipPath id="4410c17349"><path d="M 37 7 L 40 7 L 40 10 L 37 10 Z M 37 7 " clip-rule="nonzero"/></clipPath><clipPath id="ee9577593e"><path d="M 29.957031 0.015625 L 64.398438 25.292969 L 49.761719 45.234375 L 15.320312 19.953125 Z M 29.957031 0.015625 " clip-rule="nonzero"/></clipPath><clipPath id="db527491f9"><path d="M 29.957031 0.015625 L 64.398438 25.292969 L 49.761719 45.234375 L 15.320312 19.953125 Z M 29.957031 0.015625 " clip-rule="nonzero"/></clipPath><clipPath id="472b506c47"><path d="M 29.957031 0.015625 L 64.398438 25.292969 L 49.761719 45.234375 L 15.320312 19.953125 Z M 29.957031 0.015625 " clip-rule="nonzero"/></clipPath><clipPath id="076abcd241"><path d="M 37 6 L 41 6 L 41 10 L 37 10 Z M 37 6 " clip-rule="nonzero"/></clipPath><clipPath id="82b2fdf3ec"><path d="M 29.957031 0.015625 L 64.398438 25.292969 L 49.761719 45.234375 L 15.320312 19.953125 Z M 29.957031 0.015625 " clip-rule="nonzero"/></clipPath><clipPath id="ba152e9a4b"><path d="M 29.957031 0.015625 L 64.398438 25.292969 L 49.761719 45.234375 L 15.320312 19.953125 Z M 29.957031 0.015625 " clip-rule="nonzero"/></clipPath><clipPath id="1ac348f1e5"><path d="M 29.957031 0.015625 L 64.398438 25.292969 L 49.761719 45.234375 L 15.320312 19.953125 Z M 29.957031 0.015625 " clip-rule="nonzero"/></clipPath><clipPath id="2bafb42380"><path d="M 18 2 L 50 2 L 50 38 L 18 38 Z M 18 2 " clip-rule="nonzero"/></clipPath><clipPath id="625564b804"><path d="M 29.957031 0.015625 L 64.398438 25.292969 L 49.761719 45.234375 L 15.320312 19.953125 Z M 29.957031 0.015625 " clip-rule="nonzero"/></clipPath><clipPath id="5fec51a479"><path d="M 29.957031 0.015625 L 64.398438 25.292969 L 49.761719 45.234375 L 15.320312 19.953125 Z M 29.957031 0.015625 " clip-rule="nonzero"/></clipPath><clipPath id="69937bf92d"><path d="M 29.957031 0.015625 L 64.398438 25.292969 L 49.761719 45.234375 L 15.320312 19.953125 Z M 29.957031 0.015625 " clip-rule="nonzero"/></clipPath><clipPath id="47a8dbadc4"><path d="M 18 2 L 51 2 L 51 38 L 18 38 Z M 18 2 " clip-rule="nonzero"/></clipPath><clipPath id="ec00f39b6f"><path d="M 29.957031 0.015625 L 64.398438 25.292969 L 49.761719 45.234375 L 15.320312 19.953125 Z M 29.957031 0.015625 " clip-rule="nonzero"/></clipPath><clipPath id="afe61321c0"><path d="M 29.957031 0.015625 L 64.398438 25.292969 L 49.761719 45.234375 L 15.320312 19.953125 Z M 29.957031 0.015625 " clip-rule="nonzero"/></clipPath><clipPath id="a8805e477a"><path d="M 29.957031 0.015625 L 64.398438 25.292969 L 49.761719 45.234375 L 15.320312 19.953125 Z M 29.957031 0.015625 " clip-rule="nonzero"/></clipPath><clipPath id="67642b7a76"><path d="M 26 8 L 35 8 L 35 17 L 26 17 Z M 26 8 " clip-rule="nonzero"/></clipPath><clipPath id="6cf29e2ce4"><path d="M 29.957031 0.015625 L 64.398438 25.292969 L 49.761719 45.234375 L 15.320312 19.953125 Z M 29.957031 0.015625 " clip-rule="nonzero"/></clipPath><clipPath id="ece468d5f3"><path d="M 29.957031 0.015625 L 64.398438 25.292969 L 49.761719 45.234375 L 15.320312 19.953125 Z M 29.957031 0.015625 " clip-rule="nonzero"/></clipPath><clipPath id="e1c131a9ab"><path d="M 29.957031 0.015625 L 64.398438 25.292969 L 49.761719 45.234375 L 15.320312 19.953125 Z M 29.957031 0.015625 " clip-rule="nonzero"/></clipPath><clipPath id="e4f0056fcd"><path d="M 28 20 L 34 20 L 34 27 L 28 27 Z M 28 20 " clip-rule="nonzero"/></clipPath><clipPath id="7e49ead582"><path d="M 29.957031 0.015625 L 64.398438 25.292969 L 49.761719 45.234375 L 15.320312 19.953125 Z M 29.957031 0.015625 " clip-rule="nonzero"/></clipPath><clipPath id="ec9146bf54"><path d="M 29.957031 0.015625 L 64.398438 25.292969 L 49.761719 45.234375 L 15.320312 19.953125 Z M 29.957031 0.015625 " clip-rule="nonzero"/></clipPath><clipPath id="60e7a9d1d9"><path d="M 29.957031 0.015625 L 64.398438 25.292969 L 49.761719 45.234375 L 15.320312 19.953125 Z M 29.957031 0.015625 " clip-rule="nonzero"/></clipPath><clipPath id="fe053a35b8"><path d="M 31 23 L 38 23 L 38 29 L 31 29 Z M 31 23 " clip-rule="nonzero"/></clipPath><clipPath id="2138289c91"><path d="M 29.957031 0.015625 L 64.398438 25.292969 L 49.761719 45.234375 L 15.320312 19.953125 Z M 29.957031 0.015625 " clip-rule="nonzero"/></clipPath><clipPath id="4950238613"><path d="M 29.957031 0.015625 L 64.398438 25.292969 L 49.761719 45.234375 L 15.320312 19.953125 Z M 29.957031 0.015625 " clip-rule="nonzero"/></clipPath><clipPath id="e9278da9cc"><path d="M 29.957031 0.015625 L 64.398438 25.292969 L 49.761719 45.234375 L 15.320312 19.953125 Z M 29.957031 0.015625 " clip-rule="nonzero"/></clipPath><clipPath id="8721f62717"><path d="M 36 8 L 42 8 L 42 15 L 36 15 Z M 36 8 " clip-rule="nonzero"/></clipPath><clipPath id="cba8c41f5b"><path d="M 29.957031 0.015625 L 64.398438 25.292969 L 49.761719 45.234375 L 15.320312 19.953125 Z M 29.957031 0.015625 " clip-rule="nonzero"/></clipPath><clipPath id="9c9e89e0f1"><path d="M 29.957031 0.015625 L 64.398438 25.292969 L 49.761719 45.234375 L 15.320312 19.953125 Z M 29.957031 0.015625 " clip-rule="nonzero"/></clipPath><clipPath id="cd71d49bc5"><path d="M 29.957031 0.015625 L 64.398438 25.292969 L 49.761719 45.234375 L 15.320312 19.953125 Z M 29.957031 0.015625 " clip-rule="nonzero"/></clipPath><clipPath id="5a97e377d3"><path d="M 36 11 L 42 11 L 42 19 L 36 19 Z M 36 11 " clip-rule="nonzero"/></clipPath><clipPath id="9da1f61a8c"><path d="M 29.957031 0.015625 L 64.398438 25.292969 L 49.761719 45.234375 L 15.320312 19.953125 Z M 29.957031 0.015625 " clip-rule="nonzero"/></clipPath><clipPath id="11e1b978cd"><path d="M 29.957031 0.015625 L 64.398438 25.292969 L 49.761719 45.234375 L 15.320312 19.953125 Z M 29.957031 0.015625 " clip-rule="nonzero"/></clipPath><clipPath id="7e65b4f2ad"><path d="M 29.957031 0.015625 L 64.398438 25.292969 L 49.761719 45.234375 L 15.320312 19.953125 Z M 29.957031 0.015625 " clip-rule="nonzero"/></clipPath><clipPath id="fcf897846d"><path d="M 36 15 L 42 15 L 42 22 L 36 22 Z M 36 15 " clip-rule="nonzero"/></clipPath><clipPath id="cbaa24ed39"><path d="M 29.957031 0.015625 L 64.398438 25.292969 L 49.761719 45.234375 L 15.320312 19.953125 Z M 29.957031 0.015625 " clip-rule="nonzero"/></clipPath><clipPath id="ebaef651d6"><path d="M 29.957031 0.015625 L 64.398438 25.292969 L 49.761719 45.234375 L 15.320312 19.953125 Z M 29.957031 0.015625 " clip-rule="nonzero"/></clipPath><clipPath id="be5fc34d44"><path d="M 29.957031 0.015625 L 64.398438 25.292969 L 49.761719 45.234375 L 15.320312 19.953125 Z M 29.957031 0.015625 " clip-rule="nonzero"/></clipPath><clipPath id="c7834cd14c"><path d="M 36 18 L 42 18 L 42 25 L 36 25 Z M 36 18 " clip-rule="nonzero"/></clipPath><clipPath id="dca4524904"><path d="M 29.957031 0.015625 L 64.398438 25.292969 L 49.761719 45.234375 L 15.320312 19.953125 Z M 29.957031 0.015625 " clip-rule="nonzero"/></clipPath><clipPath id="075ca6e3a2"><path d="M 29.957031 0.015625 L 64.398438 25.292969 L 49.761719 45.234375 L 15.320312 19.953125 Z M 29.957031 0.015625 " clip-rule="nonzero"/></clipPath><clipPath id="335fa8a7ce"><path d="M 29.957031 0.015625 L 64.398438 25.292969 L 49.761719 45.234375 L 15.320312 19.953125 Z M 29.957031 0.015625 " clip-rule="nonzero"/></clipPath><clipPath id="e0b8e261c1"><path d="M 37 21 L 44 21 L 44 28 L 37 28 Z M 37 21 " clip-rule="nonzero"/></clipPath><clipPath id="6a938fd4e9"><path d="M 29.957031 0.015625 L 64.398438 25.292969 L 49.761719 45.234375 L 15.320312 19.953125 Z M 29.957031 0.015625 " clip-rule="nonzero"/></clipPath><clipPath id="d677e2c953"><path d="M 29.957031 0.015625 L 64.398438 25.292969 L 49.761719 45.234375 L 15.320312 19.953125 Z M 29.957031 0.015625 " clip-rule="nonzero"/></clipPath><clipPath id="8a881efe2d"><path d="M 29.957031 0.015625 L 64.398438 25.292969 L 49.761719 45.234375 L 15.320312 19.953125 Z M 29.957031 0.015625 " clip-rule="nonzero"/></clipPath><clipPath id="58b27c537e"><path d="M 39 24 L 45 24 L 45 31 L 39 31 Z M 39 24 " clip-rule="nonzero"/></clipPath><clipPath id="9458aa377f"><path d="M 29.957031 0.015625 L 64.398438 25.292969 L 49.761719 45.234375 L 15.320312 19.953125 Z M 29.957031 0.015625 " clip-rule="nonzero"/></clipPath><clipPath id="f916a5c847"><path d="M 29.957031 0.015625 L 64.398438 25.292969 L 49.761719 45.234375 L 15.320312 19.953125 Z M 29.957031 0.015625 " clip-rule="nonzero"/></clipPath><clipPath id="452f3b030d"><path d="M 29.957031 0.015625 L 64.398438 25.292969 L 49.761719 45.234375 L 15.320312 19.953125 Z M 29.957031 0.015625 " clip-rule="nonzero"/></clipPath><clipPath id="cb7670874b"><path d="M 41 27 L 47 27 L 47 33 L 41 33 Z M 41 27 " clip-rule="nonzero"/></clipPath><clipPath id="98d375cfd9"><path d="M 29.957031 0.015625 L 64.398438 25.292969 L 49.761719 45.234375 L 15.320312 19.953125 Z M 29.957031 0.015625 " clip-rule="nonzero"/></clipPath><clipPath id="51998410e7"><path d="M 29.957031 0.015625 L 64.398438 25.292969 L 49.761719 45.234375 L 15.320312 19.953125 Z M 29.957031 0.015625 " clip-rule="nonzero"/></clipPath><clipPath id="7e2acf964a"><path d="M 29.957031 0.015625 L 64.398438 25.292969 L 49.761719 45.234375 L 15.320312 19.953125 Z M 29.957031 0.015625 " clip-rule="nonzero"/></clipPath><clipPath id="b275e65269"><path d="M 43 29 L 50 29 L 50 35 L 43 35 Z M 43 29 " clip-rule="nonzero"/></clipPath><clipPath id="7e07ee36de"><path d="M 29.957031 0.015625 L 64.398438 25.292969 L 49.761719 45.234375 L 15.320312 19.953125 Z M 29.957031 0.015625 " clip-rule="nonzero"/></clipPath><clipPath id="fd0ca93bbe"><path d="M 29.957031 0.015625 L 64.398438 25.292969 L 49.761719 45.234375 L 15.320312 19.953125 Z M 29.957031 0.015625 " clip-rule="nonzero"/></clipPath><clipPath id="6ded3fac0f"><path d="M 29.957031 0.015625 L 64.398438 25.292969 L 49.761719 45.234375 L 15.320312 19.953125 Z M 29.957031 0.015625 " clip-rule="nonzero"/></clipPath><clipPath id="7ab2ee7eb5"><path d="M 48 33 L 53 33 L 53 39 L 48 39 Z M 48 33 " clip-rule="nonzero"/></clipPath><clipPath id="b0d0b14f8c"><path d="M 29.957031 0.015625 L 64.398438 25.292969 L 49.761719 45.234375 L 15.320312 19.953125 Z M 29.957031 0.015625 " clip-rule="nonzero"/></clipPath><clipPath id="2a0e5b2847"><path d="M 29.957031 0.015625 L 64.398438 25.292969 L 49.761719 45.234375 L 15.320312 19.953125 Z M 29.957031 0.015625 " clip-rule="nonzero"/></clipPath><clipPath id="460fe1036c"><path d="M 29.957031 0.015625 L 64.398438 25.292969 L 49.761719 45.234375 L 15.320312 19.953125 Z M 29.957031 0.015625 " clip-rule="nonzero"/></clipPath><clipPath id="892cc82433"><path d="M 46 32 L 55 32 L 55 40 L 46 40 Z M 46 32 " clip-rule="nonzero"/></clipPath><clipPath id="770b6eb22e"><path d="M 29.957031 0.015625 L 64.398438 25.292969 L 49.761719 45.234375 L 15.320312 19.953125 Z M 29.957031 0.015625 " clip-rule="nonzero"/></clipPath><clipPath id="fdb4d1017a"><path d="M 29.957031 0.015625 L 64.398438 25.292969 L 49.761719 45.234375 L 15.320312 19.953125 Z M 29.957031 0.015625 " clip-rule="nonzero"/></clipPath><clipPath id="cc4fd010d5"><path d="M 29.957031 0.015625 L 64.398438 25.292969 L 49.761719 45.234375 L 15.320312 19.953125 Z M 29.957031 0.015625 " clip-rule="nonzero"/></clipPath><clipPath id="01f56bafd0"><path d="M 16 16 L 54 16 L 54 43 L 16 43 Z M 16 16 " clip-rule="nonzero"/></clipPath><clipPath id="94b746bbc1"><path d="M 29.957031 0.015625 L 64.398438 25.292969 L 49.761719 45.234375 L 15.320312 19.953125 Z M 29.957031 0.015625 " clip-rule="nonzero"/></clipPath><clipPath id="8008dc4e6e"><path d="M 29.957031 0.015625 L 64.398438 25.292969 L 49.761719 45.234375 L 15.320312 19.953125 Z M 29.957031 0.015625 " clip-rule="nonzero"/></clipPath><clipPath id="d53d27078c"><path d="M 29.957031 0.015625 L 64.398438 25.292969 L 49.761719 45.234375 L 15.320312 19.953125 Z M 29.957031 0.015625 " clip-rule="nonzero"/></clipPath><clipPath id="1b568c199d"><path d="M 15 16 L 54 16 L 54 43 L 15 43 Z M 15 16 " clip-rule="nonzero"/></clipPath><clipPath id="50642cbaf4"><path d="M 29.957031 0.015625 L 64.398438 25.292969 L 49.761719 45.234375 L 15.320312 19.953125 Z M 29.957031 0.015625 " clip-rule="nonzero"/></clipPath><clipPath id="6b91e74ceb"><path d="M 29.957031 0.015625 L 64.398438 25.292969 L 49.761719 45.234375 L 15.320312 19.953125 Z M 29.957031 0.015625 " clip-rule="nonzero"/></clipPath><clipPath id="e643585a88"><path d="M 29.957031 0.015625 L 64.398438 25.292969 L 49.761719 45.234375 L 15.320312 19.953125 Z M 29.957031 0.015625 " clip-rule="nonzero"/></clipPath><clipPath id="5c61a970f6"><path d="M 39 31 L 46 31 L 46 40 L 39 40 Z M 39 31 " clip-rule="nonzero"/></clipPath><clipPath id="47e104179b"><path d="M 29.957031 0.015625 L 64.398438 25.292969 L 49.761719 45.234375 L 15.320312 19.953125 Z M 29.957031 0.015625 " clip-rule="nonzero"/></clipPath><clipPath id="bb6147143e"><path d="M 29.957031 0.015625 L 64.398438 25.292969 L 49.761719 45.234375 L 15.320312 19.953125 Z M 29.957031 0.015625 " clip-rule="nonzero"/></clipPath><clipPath id="6e63769add"><path d="M 29.957031 0.015625 L 64.398438 25.292969 L 49.761719 45.234375 L 15.320312 19.953125 Z M 29.957031 0.015625 " clip-rule="nonzero"/></clipPath><clipPath id="ee9e7f2e01"><path d="M 15 15 L 21 15 L 21 22 L 15 22 Z M 15 15 " clip-rule="nonzero"/></clipPath><clipPath id="6436d61fe3"><path d="M 29.957031 0.015625 L 64.398438 25.292969 L 49.761719 45.234375 L 15.320312 19.953125 Z M 29.957031 0.015625 " clip-rule="nonzero"/></clipPath><clipPath id="f162cb97bc"><path d="M 29.957031 0.015625 L 64.398438 25.292969 L 49.761719 45.234375 L 15.320312 19.953125 Z M 29.957031 0.015625 " clip-rule="nonzero"/></clipPath><clipPath id="14072a2c3c"><path d="M 29.957031 0.015625 L 64.398438 25.292969 L 49.761719 45.234375 L 15.320312 19.953125 Z M 29.957031 0.015625 " clip-rule="nonzero"/></clipPath><clipPath id="acd4a67dfd"><path d="M 15 16 L 45 16 L 45 39 L 15 39 Z M 15 16 " clip-rule="nonzero"/></clipPath><clipPath id="6231f133ba"><path d="M 29.957031 0.015625 L 64.398438 25.292969 L 49.761719 45.234375 L 15.320312 19.953125 Z M 29.957031 0.015625 " clip-rule="nonzero"/></clipPath><clipPath id="eb339ed1eb"><path d="M 29.957031 0.015625 L 64.398438 25.292969 L 49.761719 45.234375 L 15.320312 19.953125 Z M 29.957031 0.015625 " clip-rule="nonzero"/></clipPath><clipPath id="b8c08fbc30"><path d="M 29.957031 0.015625 L 64.398438 25.292969 L 49.761719 45.234375 L 15.320312 19.953125 Z M 29.957031 0.015625 " clip-rule="nonzero"/></clipPath><clipPath id="3d4bf2d585"><path d="M 35 6 L 51 6 L 51 38 L 35 38 Z M 35 6 " clip-rule="nonzero"/></clipPath><clipPath id="f25084131d"><path d="M 29.957031 0.015625 L 64.398438 25.292969 L 49.761719 45.234375 L 15.320312 19.953125 Z M 29.957031 0.015625 " clip-rule="nonzero"/></clipPath><clipPath id="bd1a578f70"><path d="M 29.957031 0.015625 L 64.398438 25.292969 L 49.761719 45.234375 L 15.320312 19.953125 Z M 29.957031 0.015625 " clip-rule="nonzero"/></clipPath><clipPath id="7d5b64f07d"><path d="M 29.957031 0.015625 L 64.398438 25.292969 L 49.761719 45.234375 L 15.320312 19.953125 Z M 29.957031 0.015625 " clip-rule="nonzero"/></clipPath><clipPath id="ce52b41249"><path d="M 39 11 L 42 11 L 42 13 L 39 13 Z M 39 11 " clip-rule="nonzero"/></clipPath><clipPath id="701a01a925"><path d="M 29.957031 0.015625 L 64.398438 25.292969 L 49.761719 45.234375 L 15.320312 19.953125 Z M 29.957031 0.015625 " clip-rule="nonzero"/></clipPath><clipPath id="7db232165a"><path d="M 29.957031 0.015625 L 64.398438 25.292969 L 49.761719 45.234375 L 15.320312 19.953125 Z M 29.957031 0.015625 " clip-rule="nonzero"/></clipPath><clipPath id="662142ab0a"><path d="M 29.957031 0.015625 L 64.398438 25.292969 L 49.761719 45.234375 L 15.320312 19.953125 Z M 29.957031 0.015625 " clip-rule="nonzero"/></clipPath><clipPath id="1522611e07"><path d="M 39 10 L 42 10 L 42 13 L 39 13 Z M 39 10 " clip-rule="nonzero"/></clipPath><clipPath id="66caceaa8f"><path d="M 29.957031 0.015625 L 64.398438 25.292969 L 49.761719 45.234375 L 15.320312 19.953125 Z M 29.957031 0.015625 " clip-rule="nonzero"/></clipPath><clipPath id="addfad09cc"><path d="M 29.957031 0.015625 L 64.398438 25.292969 L 49.761719 45.234375 L 15.320312 19.953125 Z M 29.957031 0.015625 " clip-rule="nonzero"/></clipPath><clipPath id="2ff5b41420"><path d="M 29.957031 0.015625 L 64.398438 25.292969 L 49.761719 45.234375 L 15.320312 19.953125 Z M 29.957031 0.015625 " clip-rule="nonzero"/></clipPath><clipPath id="d5565aba3e"><path d="M 38 14 L 41 14 L 41 16 L 38 16 Z M 38 14 " clip-rule="nonzero"/></clipPath><clipPath id="5a2091b924"><path d="M 29.957031 0.015625 L 64.398438 25.292969 L 49.761719 45.234375 L 15.320312 19.953125 Z M 29.957031 0.015625 " clip-rule="nonzero"/></clipPath><clipPath id="93dab90f2c"><path d="M 29.957031 0.015625 L 64.398438 25.292969 L 49.761719 45.234375 L 15.320312 19.953125 Z M 29.957031 0.015625 " clip-rule="nonzero"/></clipPath><clipPath id="de0834c388"><path d="M 29.957031 0.015625 L 64.398438 25.292969 L 49.761719 45.234375 L 15.320312 19.953125 Z M 29.957031 0.015625 " clip-rule="nonzero"/></clipPath><clipPath id="e27a814664"><path d="M 38 14 L 41 14 L 41 17 L 38 17 Z M 38 14 " clip-rule="nonzero"/></clipPath><clipPath id="3b271d6782"><path d="M 29.957031 0.015625 L 64.398438 25.292969 L 49.761719 45.234375 L 15.320312 19.953125 Z M 29.957031 0.015625 " clip-rule="nonzero"/></clipPath><clipPath id="b2137175ab"><path d="M 29.957031 0.015625 L 64.398438 25.292969 L 49.761719 45.234375 L 15.320312 19.953125 Z M 29.957031 0.015625 " clip-rule="nonzero"/></clipPath><clipPath id="fbaa0082b9"><path d="M 29.957031 0.015625 L 64.398438 25.292969 L 49.761719 45.234375 L 15.320312 19.953125 Z M 29.957031 0.015625 " clip-rule="nonzero"/></clipPath><clipPath id="7d3eb8e87e"><path d="M 38 17 L 42 17 L 42 19 L 38 19 Z M 38 17 " clip-rule="nonzero"/></clipPath><clipPath id="86d03d4661"><path d="M 29.957031 0.015625 L 64.398438 25.292969 L 49.761719 45.234375 L 15.320312 19.953125 Z M 29.957031 0.015625 " clip-rule="nonzero"/></clipPath><clipPath id="a84d9a35eb"><path d="M 29.957031 0.015625 L 64.398438 25.292969 L 49.761719 45.234375 L 15.320312 19.953125 Z M 29.957031 0.015625 " clip-rule="nonzero"/></clipPath><clipPath id="fca0253706"><path d="M 29.957031 0.015625 L 64.398438 25.292969 L 49.761719 45.234375 L 15.320312 19.953125 Z M 29.957031 0.015625 " clip-rule="nonzero"/></clipPath><clipPath id="ea6f549072"><path d="M 39 20 L 42 20 L 42 22 L 39 22 Z M 39 20 " clip-rule="nonzero"/></clipPath><clipPath id="e87c73f94d"><path d="M 29.957031 0.015625 L 64.398438 25.292969 L 49.761719 45.234375 L 15.320312 19.953125 Z M 29.957031 0.015625 " clip-rule="nonzero"/></clipPath><clipPath id="2729edd454"><path d="M 29.957031 0.015625 L 64.398438 25.292969 L 49.761719 45.234375 L 15.320312 19.953125 Z M 29.957031 0.015625 " clip-rule="nonzero"/></clipPath><clipPath id="c51281f8ed"><path d="M 29.957031 0.015625 L 64.398438 25.292969 L 49.761719 45.234375 L 15.320312 19.953125 Z M 29.957031 0.015625 " clip-rule="nonzero"/></clipPath><clipPath id="4da651b59b"><path d="M 39 20 L 42 20 L 42 23 L 39 23 Z M 39 20 " clip-rule="nonzero"/></clipPath><clipPath id="04eedcbcc1"><path d="M 29.957031 0.015625 L 64.398438 25.292969 L 49.761719 45.234375 L 15.320312 19.953125 Z M 29.957031 0.015625 " clip-rule="nonzero"/></clipPath><clipPath id="3b9e467981"><path d="M 29.957031 0.015625 L 64.398438 25.292969 L 49.761719 45.234375 L 15.320312 19.953125 Z M 29.957031 0.015625 " clip-rule="nonzero"/></clipPath><clipPath id="f086728eb9"><path d="M 29.957031 0.015625 L 64.398438 25.292969 L 49.761719 45.234375 L 15.320312 19.953125 Z M 29.957031 0.015625 " clip-rule="nonzero"/></clipPath><clipPath id="8a70de88f3"><path d="M 40 23 L 43 23 L 43 25 L 40 25 Z M 40 23 " clip-rule="nonzero"/></clipPath><clipPath id="7f582f3e4f"><path d="M 29.957031 0.015625 L 64.398438 25.292969 L 49.761719 45.234375 L 15.320312 19.953125 Z M 29.957031 0.015625 " clip-rule="nonzero"/></clipPath><clipPath id="4304d1ebd6"><path d="M 29.957031 0.015625 L 64.398438 25.292969 L 49.761719 45.234375 L 15.320312 19.953125 Z M 29.957031 0.015625 " clip-rule="nonzero"/></clipPath><clipPath id="0de748e903"><path d="M 29.957031 0.015625 L 64.398438 25.292969 L 49.761719 45.234375 L 15.320312 19.953125 Z M 29.957031 0.015625 " clip-rule="nonzero"/></clipPath><clipPath id="6b66d3d1e0"><path d="M 42 25 L 44 25 L 44 28 L 42 28 Z M 42 25 " clip-rule="nonzero"/></clipPath><clipPath id="9f4367d837"><path d="M 29.957031 0.015625 L 64.398438 25.292969 L 49.761719 45.234375 L 15.320312 19.953125 Z M 29.957031 0.015625 " clip-rule="nonzero"/></clipPath><clipPath id="f2cf3ddf89"><path d="M 29.957031 0.015625 L 64.398438 25.292969 L 49.761719 45.234375 L 15.320312 19.953125 Z M 29.957031 0.015625 " clip-rule="nonzero"/></clipPath><clipPath id="ab1403b08a"><path d="M 29.957031 0.015625 L 64.398438 25.292969 L 49.761719 45.234375 L 15.320312 19.953125 Z M 29.957031 0.015625 " clip-rule="nonzero"/></clipPath><clipPath id="7d9eb37498"><path d="M 44 28 L 46 28 L 46 31 L 44 31 Z M 44 28 " clip-rule="nonzero"/></clipPath><clipPath id="a8a90c389b"><path d="M 29.957031 0.015625 L 64.398438 25.292969 L 49.761719 45.234375 L 15.320312 19.953125 Z M 29.957031 0.015625 " clip-rule="nonzero"/></clipPath><clipPath id="afffc80002"><path d="M 29.957031 0.015625 L 64.398438 25.292969 L 49.761719 45.234375 L 15.320312 19.953125 Z M 29.957031 0.015625 " clip-rule="nonzero"/></clipPath><clipPath id="b0135e7cbb"><path d="M 29.957031 0.015625 L 64.398438 25.292969 L 49.761719 45.234375 L 15.320312 19.953125 Z M 29.957031 0.015625 " clip-rule="nonzero"/></clipPath><clipPath id="4e9c6799f0"><path d="M 46 30 L 48 30 L 48 33 L 46 33 Z M 46 30 " clip-rule="nonzero"/></clipPath><clipPath id="bb16707b13"><path d="M 29.957031 0.015625 L 64.398438 25.292969 L 49.761719 45.234375 L 15.320312 19.953125 Z M 29.957031 0.015625 " clip-rule="nonzero"/></clipPath><clipPath id="bd3f6d4614"><path d="M 29.957031 0.015625 L 64.398438 25.292969 L 49.761719 45.234375 L 15.320312 19.953125 Z M 29.957031 0.015625 " clip-rule="nonzero"/></clipPath><clipPath id="ca1c61c283"><path d="M 29.957031 0.015625 L 64.398438 25.292969 L 49.761719 45.234375 L 15.320312 19.953125 Z M 29.957031 0.015625 " clip-rule="nonzero"/></clipPath></defs><g clip-path="url(#4410c17349)"><g clip-path="url(#ee9577593e)"><g clip-path="url(#db527491f9)"><g clip-path="url(#472b506c47)"><path fill="#000000" d="M 37.382812 8.164062 C 37.667969 7.730469 37.738281 7.53125 38.078125 7.351562 C 38.667969 7.03125 39.464844 7.027344 39.65625 7.226562 C 39.953125 7.539062 39.761719 7.738281 39.824219 8.21875 C 39.886719 8.699219 39.816406 9.699219 39.816406 9.699219 Z M 37.382812 8.164062 " fill-opacity="1" fill-rule="nonzero"/></g></g></g></g><g clip-path="url(#076abcd241)"><g clip-path="url(#82b2fdf3ec)"><g clip-path="url(#ba152e9a4b)"><g clip-path="url(#1ac348f1e5)"><path stroke-linecap="butt" transform="matrix(0.0417958, 0.0306774, -0.0304973, 0.0415505, 36.166907, -9.550302)" fill="none" stroke-linejoin="miter" d="M 221.075804 263.10987 C 220.561228 253.05444 219.38089 249.131282 222.614422 242.419354 C 228.130309 230.637891 240.476408 221.428558 245.726234 222.347149 C 253.908853 223.826764 253.206294 229.140095 259.661581 235.937551 C 266.116868 242.735006 276.436321 259.183105 276.436321 259.183105 Z M 221.075804 263.10987 " stroke="#000000" stroke-width="1" stroke-opacity="1" stroke-miterlimit="4"/></g></g></g></g><g clip-path="url(#2bafb42380)"><g clip-path="url(#625564b804)"><g clip-path="url(#5fec51a479)"><g clip-path="url(#69937bf92d)"><path fill="#000000" d="M 31.121094 2.332031 C 31.121094 2.332031 29.101562 5.644531 25.476562 9.332031 C 22.121094 12.746094 21.984375 12.339844 20.933594 13.582031 C 19.886719 14.820312 18.496094 17.089844 18.496094 17.089844 C 18.496094 17.089844 31.714844 27.246094 35.570312 29.753906 C 39.421875 32.265625 49.429688 37.28125 49.429688 37.28125 C 49.429688 37.28125 50.199219 36.109375 49.433594 34.589844 C 48.664062 33.066406 46.429688 31.105469 45.398438 29.570312 C 44.363281 28.035156 40.894531 23.9375 40.742188 19.578125 C 40.589844 15.21875 41.019531 10.539062 40.394531 9.414062 C 39.433594 8.886719 37.503906 7.65625 35.21875 5.886719 C 32.933594 4.121094 31.121094 2.332031 31.121094 2.332031 Z M 31.121094 2.332031 " fill-opacity="1" fill-rule="nonzero"/></g></g></g></g><g clip-path="url(#47a8dbadc4)"><g clip-path="url(#ec00f39b6f)"><g clip-path="url(#afe61321c0)"><g clip-path="url(#a8805e477a)"><path stroke-linecap="butt" transform="matrix(0.0417958, 0.0306774, -0.0304973, 0.0415505, 36.166907, -9.550302)" fill="none" stroke-linejoin="miter" d="M 57.15228 243.777042 C 57.15228 243.777042 63.555139 318.772024 49.274202 418.063347 C 36.063557 509.983606 29.301276 505.19904 27.139358 536.691085 C 24.993598 568.077189 29.272236 619.53927 29.272236 619.53927 C 29.272236 619.53927 350.722475 626.639097 439.292533 621.60223 C 527.846433 616.671306 740.700862 580.229131 740.700862 580.229131 C 740.700862 580.229131 739.292057 553.065625 710.045258 538.088268 C 680.69314 523.094658 623.570959 518.074762 590.01561 505.902427 C 556.399522 493.774937 455.698102 469.505629 403.576846 403.070004 C 351.45559 336.634378 304.728743 258.506977 282.171221 248.086049 C 261.211078 250.869613 217.163166 253.777052 161.435854 252.333898 C 105.753123 250.951841 57.15228 243.777042 57.15228 243.777042 Z M 57.15228 243.777042 " stroke="#000000" stroke-width="1" stroke-opacity="1" stroke-miterlimit="4"/></g></g></g></g><g clip-path="url(#67642b7a76)"><g clip-path="url(#6cf29e2ce4)"><g clip-path="url(#ece468d5f3)"><g clip-path="url(#e1c131a9ab)"><path stroke-linecap="butt" transform="matrix(0.0417958, 0.0306774, -0.0304973, 0.0415505, 36.324267, -9.389152)" fill-opacity="1" fill="#ffffff" fill-rule="nonzero" stroke-linejoin="miter" d="M 236.455129 407.697314 C 236.435465 447.761013 202.858333 480.260539 161.417699 480.208849 C 120.021647 480.218256 86.433494 447.763514 86.453158 407.699814 C 86.412084 367.680959 120.033797 335.242531 161.42985 335.233124 C 202.825902 335.223716 236.414055 367.678459 236.455129 407.697314 Z M 236.455129 407.697314 " stroke="#d8d8d8" stroke-width="1" stroke-opacity="1" stroke-miterlimit="4"/></g></g></g></g><g clip-path="url(#e4f0056fcd)"><g clip-path="url(#7e49ead582)"><g clip-path="url(#ec9146bf54)"><g clip-path="url(#60e7a9d1d9)"><path stroke-linecap="butt" transform="matrix(0.00647292, 0.004751, -0.00458557, 0.00624753, 31.988447, 20.22616)" fill="none" stroke-linejoin="miter" d="M 236.481887 407.961403 C 236.47202 447.984718 202.772538 480.489585 161.422635 480.046985 C 119.968401 480.308971 86.530074 447.589548 86.539941 407.566234 C 86.549809 367.542919 119.8571 335.336298 161.311333 335.074312 C 203.053427 335.218666 236.491755 367.938089 236.481887 407.961403 Z M 236.481887 407.961403 " stroke="#ffffff" stroke-width="48.764999" stroke-opacity="1" stroke-miterlimit="4"/></g></g></g></g><g clip-path="url(#fe053a35b8)"><g clip-path="url(#2138289c91)"><g clip-path="url(#4950238613)"><g clip-path="url(#e9278da9cc)"><path stroke-linecap="butt" transform="matrix(0.00647292, 0.004751, -0.00458557, 0.00624753, 35.434632, 22.678237)" fill="none" stroke-linejoin="miter" d="M 236.183551 407.730687 C 236.173683 447.754002 202.866392 479.960623 161.412159 480.222609 C 119.957926 480.484595 86.519598 447.765172 86.529466 407.741858 C 86.539333 367.718543 120.238815 335.213676 161.300858 335.249936 C 202.755091 334.987951 236.193419 367.707373 236.183551 407.730687 Z M 236.183551 407.730687 " stroke="#ffffff" stroke-width="48.764999" stroke-opacity="1" stroke-miterlimit="4"/></g></g></g></g><g clip-path="url(#8721f62717)"><g clip-path="url(#cba8c41f5b)"><g clip-path="url(#9c9e89e0f1)"><g clip-path="url(#cd71d49bc5)"><path stroke-linecap="butt" transform="matrix(0.00351811, 0.00831847, -0.00665443, 0.00303347, 41.424356, 8.915144)" fill="none" stroke-linejoin="miter" d="M 236.277378 407.643854 C 236.278031 447.561231 202.73443 480.310475 161.449781 480.203384 C 120.165133 480.096293 86.464149 447.603645 86.463496 407.686267 C 86.462843 367.768889 120.006444 335.019646 161.291093 335.126737 C 202.969428 335.441964 236.276725 367.726476 236.277378 407.643854 Z M 236.277378 407.643854 " stroke="#ffffff" stroke-width="48.766998" stroke-opacity="1" stroke-miterlimit="4"/></g></g></g></g><g clip-path="url(#5a97e377d3)"><g clip-path="url(#9da1f61a8c)"><g clip-path="url(#11e1b978cd)"><g clip-path="url(#7e65b4f2ad)"><path stroke-linecap="butt" transform="matrix(0.00351811, 0.00831847, -0.00665443, 0.00303347, 40.992423, 12.319768)" fill="none" stroke-linejoin="miter" d="M 236.365006 407.939723 C 236.365658 447.857101 203.001522 480.11421 161.537409 480.499254 C 119.859074 480.184026 86.551777 447.899514 86.551124 407.982137 C 86.336249 367.364487 120.094072 335.315515 161.37872 335.422606 C 202.842834 335.037563 236.543818 367.530211 236.365006 407.939723 Z M 236.365006 407.939723 " stroke="#ffffff" stroke-width="48.766998" stroke-opacity="1" stroke-miterlimit="4"/></g></g></g></g><g clip-path="url(#fcf897846d)"><g clip-path="url(#cbaa24ed39)"><g clip-path="url(#ebaef651d6)"><g clip-path="url(#be5fc34d44)"><path stroke-linecap="butt" transform="matrix(0.00351811, 0.00831847, -0.00665443, 0.00303347, 40.872866, 15.611615)" fill="none" stroke-linejoin="miter" d="M 236.586918 407.701001 C 236.587571 447.618379 202.650283 480.159485 161.365635 480.052395 C 119.901521 480.437438 86.380002 447.452655 86.379349 407.535278 C 86.378696 367.6179 119.742832 335.360791 161.600633 335.183884 C 202.885281 335.290975 236.586265 367.783623 236.586918 407.701001 Z M 236.586918 407.701001 " stroke="#ffffff" stroke-width="48.766998" stroke-opacity="1" stroke-miterlimit="4"/></g></g></g></g><g clip-path="url(#c7834cd14c)"><g clip-path="url(#dca4524904)"><g clip-path="url(#075ca6e3a2)"><g clip-path="url(#335fa8a7ce)"><path stroke-linecap="butt" transform="matrix(0.00341846, 0.00840517, -0.00674847, 0.00318438, 41.470935, 18.92638)" fill="none" stroke-linejoin="miter" d="M 236.313259 407.709925 C 236.48527 447.736658 202.726258 480.415712 161.400323 480.319976 C 120.074388 480.224241 86.440543 447.558368 86.658446 407.729148 C 86.486434 367.702414 120.061458 335.508996 161.571381 335.119096 C 202.897316 335.214831 236.531161 367.880704 236.313259 407.709925 Z M 236.313259 407.709925 " stroke="#ffffff" stroke-width="48.766998" stroke-opacity="1" stroke-miterlimit="4"/></g></g></g></g><g clip-path="url(#e0b8e261c1)"><g clip-path="url(#6a938fd4e9)"><g clip-path="url(#d677e2c953)"><g clip-path="url(#8a881efe2d)"><path stroke-linecap="butt" transform="matrix(0.00482542, 0.00769307, -0.00608568, 0.00430893, 42.232785, 21.649121)" fill="none" stroke-linejoin="miter" d="M 236.472329 408.046377 C 236.507925 447.870902 202.704328 480.120112 161.527457 480.206038 C 119.998979 480.013169 86.37558 447.575804 86.339985 407.751279 C 86.553342 367.482277 120.005332 334.954272 161.53381 335.147141 C 202.710681 335.061216 236.334079 367.49858 236.472329 408.046377 Z M 236.472329 408.046377 " stroke="#ffffff" stroke-width="48.766998" stroke-opacity="1" stroke-miterlimit="4"/></g></g></g></g><g clip-path="url(#58b27c537e)"><g clip-path="url(#9458aa377f)"><g clip-path="url(#f916a5c847)"><g clip-path="url(#452f3b030d)"><path stroke-linecap="butt" transform="matrix(0.00503984, 0.00707236, -0.0052571, 0.00327205, 43.630711, 24.992177)" fill="none" stroke-linejoin="miter" d="M 236.639777 407.763168 C 236.406408 447.663765 203.061248 480.341374 161.50481 480.626626 C 120.186518 480.39714 86.515869 448.117971 86.366617 407.850565 C 86.217365 367.583159 119.945146 335.272359 161.501584 334.987106 C 202.819876 335.216593 236.490525 367.495762 236.639777 407.763168 Z M 236.639777 407.763168 " stroke="#ffffff" stroke-width="48.766998" stroke-opacity="1" stroke-miterlimit="4"/></g></g></g></g><g clip-path="url(#cb7670874b)"><g clip-path="url(#98d375cfd9)"><g clip-path="url(#51998410e7)"><g clip-path="url(#7e2acf964a)"><path stroke-linecap="butt" transform="matrix(0.00503984, 0.00707236, -0.0052571, 0.00327205, 45.652642, 27.494719)" fill="none" stroke-linejoin="miter" d="M 236.244545 407.840706 C 236.631943 447.593373 202.904162 479.904173 161.347724 480.189425 C 120.029432 479.959939 86.358783 447.68077 86.592152 407.780172 C 86.4429 367.512767 120.170681 335.201967 161.488973 335.431453 C 203.045411 335.146201 236.477914 367.940109 236.244545 407.840706 Z M 236.244545 407.840706 " stroke="#ffffff" stroke-width="48.766998" stroke-opacity="1" stroke-miterlimit="4"/></g></g></g></g><g clip-path="url(#b275e65269)"><g clip-path="url(#7e07ee36de)"><g clip-path="url(#fd0ca93bbe)"><g clip-path="url(#6ded3fac0f)"><path stroke-linecap="butt" transform="matrix(0.00625548, 0.00600757, -0.00428197, 0.00369943, 47.234809, 29.960273)" fill="none" stroke-linejoin="miter" d="M 236.635139 407.832705 C 236.288031 447.464886 203.122631 480.204656 161.402335 480.377026 C 119.977764 480.069163 86.586754 447.70916 86.59157 407.576927 C 86.30066 367.924929 120.104078 335.204977 161.528649 335.51284 C 202.610927 335.320652 236.639955 367.700473 236.635139 407.832705 Z M 236.635139 407.832705 " stroke="#ffffff" stroke-width="48.766998" stroke-opacity="1" stroke-miterlimit="4"/></g></g></g></g><g clip-path="url(#7ab2ee7eb5)"><g clip-path="url(#b0d0b14f8c)"><g clip-path="url(#2a0e5b2847)"><g clip-path="url(#460fe1036c)"><path fill="#ffffff" d="M 52.914062 38.296875 C 53.015625 37.597656 52.9375 36.921875 52.503906 36.410156 C 51.613281 35.347656 49.386719 33.996094 48.6875 33.597656 C 47.992188 33.199219 48.84375 36.1875 49.300781 37.207031 C 50.011719 37.386719 52.25 38.496094 52.914062 38.296875 Z M 52.914062 38.296875 " fill-opacity="1" fill-rule="nonzero"/></g></g></g></g><g clip-path="url(#892cc82433)"><g clip-path="url(#770b6eb22e)"><g clip-path="url(#fdb4d1017a)"><g clip-path="url(#cc4fd010d5)"><path stroke-linecap="butt" transform="matrix(0.0417958, 0.0306774, -0.0304973, 0.0415505, 36.166907, -9.550302)" fill="none" stroke-linejoin="miter" d="M 806.47079 556.113315 C 800.069986 544.010952 791.142693 534.338011 778.560588 531.311984 C 752.586136 524.918025 702.540076 529.339614 687.120594 531.134821 C 671.761852 532.885183 719.107374 569.848539 737.849447 580.548145 C 750.954605 575.196958 798.418856 566.852805 806.47079 556.113315 Z M 806.47079 556.113315 " stroke="#000000" stroke-width="5" stroke-opacity="1" stroke-miterlimit="4"/></g></g></g></g><g clip-path="url(#01f56bafd0)"><g clip-path="url(#94b746bbc1)"><g clip-path="url(#8008dc4e6e)"><g clip-path="url(#d53d27078c)"><path fill="#ffffff" d="M 18.667969 16.136719 C 18.667969 16.136719 26.839844 22.648438 32.882812 26.953125 C 38.871094 31.222656 48.933594 37.140625 53.1875 37.984375 C 53.074219 38.339844 53.222656 38.859375 53.101562 39.277344 C 52.957031 39.773438 52.203125 41.636719 51.527344 42.054688 C 50.855469 42.472656 46.242188 40.5625 42.90625 38.847656 C 39.574219 37.128906 35.566406 34.195312 32.402344 31.871094 C 29.238281 29.550781 22.101562 24.878906 19.535156 22.867188 C 16.964844 20.851562 16.332031 20.050781 16.121094 19.269531 C 16.582031 18.472656 18.667969 16.136719 18.667969 16.136719 Z M 18.667969 16.136719 " fill-opacity="1" fill-rule="nonzero"/></g></g></g></g><g clip-path="url(#1b568c199d)"><g clip-path="url(#50642cbaf4)"><g clip-path="url(#6b91e74ceb)"><g clip-path="url(#e643585a88)"><path stroke-linecap="butt" transform="matrix(0.0417958, 0.0306774, -0.0304973, 0.0415505, 36.166907, -9.550302)" fill="none" stroke-linejoin="round" d="M 21.06696 602.658388 C 21.06696 602.658388 222.448775 610.693283 365.539746 608.648359 C 507.379147 606.681379 731.382138 583.724854 807.15601 548.086433 C 809.451465 554.946769 817.688812 561.368623 820.576087 569.296204 C 823.990551 578.714796 833.533155 616.513142 827.795545 630.808611 C 822.118673 645.059237 728.586222 668.143778 657.144354 679.619099 C 585.718644 690.988479 489.920446 691.114671 414.196434 691.085669 C 338.517003 691.117765 174.228598 699.975947 111.36408 697.973551 C 48.394243 695.954902 29.41547 690.694737 17.219375 680.896875 C 15.291999 663.141405 21.06696 602.658388 21.06696 602.658388 Z M 21.06696 602.658388 " stroke="#000000" stroke-width="5" stroke-opacity="1" stroke-miterlimit="4"/></g></g></g></g><g clip-path="url(#5c61a970f6)"><g clip-path="url(#47e104179b)"><g clip-path="url(#bb6147143e)"><g clip-path="url(#6e63769add)"><path stroke-linecap="butt" transform="matrix(0.0417958, 0.0306774, -0.0304973, 0.0415505, 36.166907, -9.550302)" fill="none" stroke-linejoin="miter" d="M 605.72246 590.574266 C 613.216455 620.953976 621.776158 662.016343 623.952743 684.852498 " stroke="#000000" stroke-width="6" stroke-opacity="1" stroke-miterlimit="4"/></g></g></g></g><g clip-path="url(#ee9e7f2e01)"><g clip-path="url(#6436d61fe3)"><g clip-path="url(#f162cb97bc)"><g clip-path="url(#14072a2c3c)"><path stroke-linecap="butt" transform="matrix(0.0417958, 0.0306774, -0.0304973, 0.0415505, 36.166907, -9.550302)" fill="none" stroke-linejoin="miter" d="M 20.71952 614.478404 L 35.371221 617.010548 L 34.660223 689.172757 " stroke="#000000" stroke-width="5" stroke-opacity="1" stroke-miterlimit="4"/></g></g></g></g><g clip-path="url(#acd4a67dfd)"><g clip-path="url(#6231f133ba)"><g clip-path="url(#eb339ed1eb)"><g clip-path="url(#b8c08fbc30)"><path stroke-linecap="butt" transform="matrix(0.0417958, 0.0306774, -0.0304973, 0.0415505, 36.166907, -9.550302)" fill="none" stroke-linejoin="miter" d="M 34.652299 660.59891 C 34.652299 660.59891 50.982512 666.968439 77.258294 667.499192 C 103.534076 668.029945 235.368108 664.518933 275.800126 664.46919 C 311.651033 664.417316 440.423602 662.602557 488.939521 660.43884 C 541.420791 658.073796 619.239277 649.317477 619.239277 649.317477 " stroke="#000000" stroke-width="8" stroke-opacity="1" stroke-miterlimit="4"/></g></g></g></g><g clip-path="url(#3d4bf2d585)"><g clip-path="url(#f25084131d)"><g clip-path="url(#bd1a578f70)"><g clip-path="url(#7d5b64f07d)"><path stroke-linecap="round" transform="matrix(0.0417958, 0.0306774, -0.0304973, 0.0415505, 36.166907, -9.550302)" fill="none" stroke-linejoin="miter" d="M 234.334164 256.047366 C 269.98639 313.489601 277.687621 364.77503 328.711446 422.14963 C 379.779852 479.585326 421.190675 514.819575 491.470276 532.876083 C 561.794458 550.993688 714.915227 570.123302 714.915227 570.123302 " stroke="#ffffff" stroke-width="4.874" stroke-opacity="1" stroke-miterlimit="4"/></g></g></g></g><g clip-path="url(#ce52b41249)"><g clip-path="url(#701a01a925)"><g clip-path="url(#7db232165a)"><g clip-path="url(#662142ab0a)"><path fill="#ffffff" d="M 39.292969 11.226562 C 39.207031 11.488281 39.226562 11.558594 39.210938 11.738281 C 40.191406 12.386719 40.574219 12.097656 41.203125 12.554688 C 41.316406 12.332031 41.371094 11.625 41.210938 11.308594 C 40.398438 10.972656 40.160156 11.023438 39.292969 11.226562 Z M 39.292969 11.226562 " fill-opacity="1" fill-rule="nonzero"/></g></g></g></g><g clip-path="url(#1522611e07)"><g clip-path="url(#66caceaa8f)"><g clip-path="url(#addfad09cc)"><g clip-path="url(#2ff5b41420)"><path stroke-linecap="butt" transform="matrix(0.0417958, 0.0306774, -0.0304973, 0.0415505, 36.166907, -9.550302)" fill="none" stroke-linejoin="round" d="M 285.728535 289.081272 C 287.379215 294.161363 288.485367 295.036893 290.293141 298.026744 C 312.93899 296.912975 315.592378 287.997036 330.58728 287.925486 C 329.80758 283.142458 322.588751 271.456032 316.487403 268.345769 C 300.019798 272.419016 296.894295 275.948782 285.728535 289.081272 Z M 285.728535 289.081272 " stroke="#000000" stroke-width="3" stroke-opacity="1" stroke-miterlimit="4"/></g></g></g></g><g clip-path="url(#d5565aba3e)"><g clip-path="url(#5a2091b924)"><g clip-path="url(#93dab90f2c)"><g clip-path="url(#de0834c388)"><path fill="#ffffff" d="M 38.84375 14.59375 C 38.757812 14.855469 38.824219 14.953125 38.804688 15.132812 C 39.789062 15.777344 40.136719 15.542969 40.765625 16 C 40.878906 15.777344 40.933594 15.070312 40.777344 14.753906 C 39.964844 14.417969 39.710938 14.390625 38.84375 14.59375 Z M 38.84375 14.59375 " fill-opacity="1" fill-rule="nonzero"/></g></g></g></g><g clip-path="url(#e27a814664)"><g clip-path="url(#3b271d6782)"><g clip-path="url(#b2137175ab)"><g clip-path="url(#fbaa0082b9)"><path stroke-linecap="butt" transform="matrix(0.0417958, 0.0306774, -0.0304973, 0.0415505, 36.166907, -9.550302)" fill="none" stroke-linejoin="round" d="M 317.172456 346.904212 C 318.823136 351.984303 320.970219 352.749382 322.717254 355.784078 C 345.379261 354.564367 348.110136 346.907389 363.105038 346.835839 C 362.325338 342.05281 355.106509 330.366384 349.065899 327.211277 C 332.598295 331.284524 328.338216 333.771722 317.172456 346.904212 Z M 317.172456 346.904212 " stroke="#000000" stroke-width="3" stroke-opacity="1" stroke-miterlimit="4"/></g></g></g></g><g clip-path="url(#7d3eb8e87e)"><g clip-path="url(#86d03d4661)"><g clip-path="url(#a84d9a35eb)"><g clip-path="url(#fca0253706)"><path stroke-linecap="butt" transform="matrix(0.0417958, 0.0306774, -0.0304973, 0.0415505, 36.166907, -9.550302)" fill-opacity="1" fill="#ffffff" fill-rule="nonzero" stroke-linejoin="round" d="M 355.852057 398.632837 C 357.563476 403.668085 356.879784 405.67706 358.642977 408.605814 C 377.23678 394.125617 386.285307 393.461725 398.433033 384.492867 C 397.608752 379.648741 391.1445 370.789637 385.087733 367.740471 C 368.620128 371.813718 367.017818 385.500347 355.852057 398.632837 Z M 355.852057 398.632837 " stroke="#000000" stroke-width="3" stroke-opacity="1" stroke-miterlimit="4"/></g></g></g></g><g clip-path="url(#ea6f549072)"><g clip-path="url(#e87c73f94d)"><g clip-path="url(#2729edd454)"><g clip-path="url(#c51281f8ed)"><path fill="#ffffff" d="M 39.285156 21.277344 C 39.203125 21.539062 39.222656 21.609375 39.203125 21.789062 C 40.015625 22.148438 40.9375 21.871094 41.402344 21.921875 C 41.515625 21.699219 41.382812 21.292969 41.222656 20.976562 C 40.410156 20.640625 39.511719 20.941406 39.285156 21.277344 Z M 39.285156 21.277344 " fill-opacity="1" fill-rule="nonzero"/></g></g></g></g><g clip-path="url(#4da651b59b)"><g clip-path="url(#04eedcbcc1)"><g clip-path="url(#3b9e467981)"><g clip-path="url(#f086728eb9)"><path stroke-linecap="butt" transform="matrix(0.0417958, 0.0306774, -0.0304973, 0.0415505, 36.166907, -9.550302)" fill="none" stroke-linejoin="round" d="M 400.314093 446.374236 C 402.025513 451.409483 403.131665 452.285012 404.8787 455.319708 C 421.61379 451.613045 432.782852 436.691887 440.590302 432.149681 C 439.810603 427.366652 433.109061 422.537242 427.007712 419.426979 C 410.540107 423.500226 400.002964 438.518902 400.314093 446.374236 Z M 400.314093 446.374236 " stroke="#000000" stroke-width="3" stroke-opacity="1" stroke-miterlimit="4"/></g></g></g></g><g clip-path="url(#8a70de88f3)"><g clip-path="url(#7f582f3e4f)"><g clip-path="url(#4304d1ebd6)"><g clip-path="url(#0de748e903)"><path stroke-linecap="butt" transform="matrix(0.0417958, 0.0306774, -0.0304973, 0.0415505, 36.166907, -9.550302)" fill-opacity="1" fill="#ffffff" fill-rule="nonzero" stroke-linejoin="round" d="M 453.499489 481.094189 C 455.194751 486.235378 457.390306 486.682632 462.352597 487.719502 C 478.012078 478.696188 478.00346 467.79714 481.001231 459.096999 C 480.17695 454.252873 468.688731 451.829396 462.631964 448.78023 C 457.395829 461.201258 458.157843 472.108135 453.499489 481.094189 Z M 453.499489 481.094189 " stroke="#000000" stroke-width="3" stroke-opacity="1" stroke-miterlimit="4"/></g></g></g></g><g clip-path="url(#6b66d3d1e0)"><g clip-path="url(#9f4367d837)"><g clip-path="url(#f2cf3ddf89)"><g clip-path="url(#ab1403b08a)"><path stroke-linecap="butt" transform="matrix(0.0417958, 0.0306774, -0.0304973, 0.0415505, 36.166907, -9.550302)" fill-opacity="1" fill="#ffffff" fill-rule="nonzero" stroke-linejoin="round" d="M 511.81299 506.575276 C 515.528192 508.720915 519.947727 509.782462 524.87322 510.000392 C 529.072316 497.310892 530.400538 486.835016 530.254876 477.541345 C 527.87144 473.378307 516.334158 469.862908 509.622122 468.989756 C 513.97668 479.312469 513.13732 496.478322 511.81299 506.575276 Z M 511.81299 506.575276 " stroke="#000000" stroke-width="3" stroke-opacity="1" stroke-miterlimit="4"/></g></g></g></g><g clip-path="url(#7d9eb37498)"><g clip-path="url(#a8a90c389b)"><g clip-path="url(#afffc80002)"><g clip-path="url(#b0135e7cbb)"><path stroke-linecap="butt" transform="matrix(0.0417958, 0.0306774, -0.0304973, 0.0415505, 36.166907, -9.550302)" fill-opacity="1" fill="#ffffff" fill-rule="nonzero" stroke-linejoin="round" d="M 572.917513 522.944794 C 576.965423 526.442997 579.367726 527.301679 584.191201 525.714687 C 590.785407 516.05146 587.256658 504.554967 583.422688 499.300602 C 580.387285 495.524909 573.217173 493.767804 566.477305 494.13736 C 567.11725 503.724179 569.571571 512.723514 572.917513 522.944794 Z M 572.917513 522.944794 " stroke="#000000" stroke-width="3" stroke-opacity="1" stroke-miterlimit="4"/></g></g></g></g><g clip-path="url(#4e9c6799f0)"><g clip-path="url(#bb16707b13)"><g clip-path="url(#bd3f6d4614)"><g clip-path="url(#ca1c61c283)"><path stroke-linecap="butt" transform="matrix(0.0417958, 0.0306774, -0.0304973, 0.0415505, 36.166907, -9.550302)" fill-opacity="1" fill="#ffffff" fill-rule="nonzero" stroke-linejoin="round" d="M 634.470557 536.726871 C 638.502309 540.331015 640.664959 539.580406 645.533014 538.054512 C 651.500376 530.734337 650.583041 526.146939 648.048523 519.087058 C 644.968539 515.250268 632.775398 512.501137 625.974791 512.915537 C 627.184143 518.41548 634.016719 526.626596 634.470557 536.726871 Z M 634.470557 536.726871 " stroke="#000000" stroke-width="3" stroke-opacity="1" stroke-miterlimit="4"/></g></g></g></g><g fill="#000000" fill-opacity="1"><g transform="translate(50.051648, 31.069697)"><g><path d="M 6.015625 0.3125 C 4.929688 0.3125 4.039062 0.140625 3.34375 -0.203125 C 2.644531 -0.554688 2.125 -1.019531 1.78125 -1.59375 C 1.445312 -2.175781 1.28125 -2.816406 1.28125 -3.515625 C 1.28125 -4.691406 1.738281 -5.644531 2.65625 -6.375 C 3.570312 -7.101562 4.945312 -7.46875 6.78125 -7.46875 L 10 -7.46875 L 10 -7.78125 C 10 -8.644531 9.75 -9.28125 9.25 -9.6875 C 8.757812 -10.09375 8.148438 -10.296875 7.421875 -10.296875 C 6.753906 -10.296875 6.175781 -10.140625 5.6875 -9.828125 C 5.195312 -9.515625 4.890625 -9.050781 4.765625 -8.4375 L 1.578125 -8.4375 C 1.660156 -9.351562 1.96875 -10.148438 2.5 -10.828125 C 3.039062 -11.515625 3.734375 -12.039062 4.578125 -12.40625 C 5.429688 -12.769531 6.390625 -12.953125 7.453125 -12.953125 C 9.253906 -12.953125 10.671875 -12.5 11.703125 -11.59375 C 12.742188 -10.695312 13.265625 -9.425781 13.265625 -7.78125 L 13.265625 0 L 10.484375 0 L 10.171875 -2.046875 C 9.796875 -1.359375 9.269531 -0.789062 8.59375 -0.34375 C 7.925781 0.09375 7.066406 0.3125 6.015625 0.3125 Z M 6.75 -2.25 C 7.6875 -2.25 8.414062 -2.550781 8.9375 -3.15625 C 9.457031 -3.769531 9.785156 -4.53125 9.921875 -5.4375 L 7.140625 -5.4375 C 6.273438 -5.4375 5.65625 -5.273438 5.28125 -4.953125 C 4.90625 -4.640625 4.71875 -4.253906 4.71875 -3.796875 C 4.71875 -3.304688 4.90625 -2.925781 5.28125 -2.65625 C 5.65625 -2.382812 6.144531 -2.25 6.75 -2.25 Z M 6.75 -2.25 "/></g></g></g><g fill="#000000" fill-opacity="1"><g transform="translate(63.486038, 31.069697)"><g><path d="M 1.65625 0 L 1.65625 -18.359375 L 4.921875 -18.359375 L 4.921875 0 Z M 1.65625 0 "/></g></g></g><g fill="#000000" fill-opacity="1"><g transform="translate(68.813807, 31.069697)"><g><path d="M 1.65625 0 L 1.65625 -18.359375 L 4.921875 -18.359375 L 4.921875 0 Z M 1.65625 0 "/></g></g></g><g fill="#000000" fill-opacity="1"><g transform="translate(74.141576, 31.069697)"><g><path d="M 7.859375 0.3125 C 6.566406 0.3125 5.425781 0.03125 4.4375 -0.53125 C 3.445312 -1.09375 2.664062 -1.875 2.09375 -2.875 C 1.53125 -3.882812 1.25 -5.035156 1.25 -6.328125 C 1.25 -7.617188 1.53125 -8.765625 2.09375 -9.765625 C 2.664062 -10.765625 3.445312 -11.546875 4.4375 -12.109375 C 5.425781 -12.671875 6.566406 -12.953125 7.859375 -12.953125 C 9.472656 -12.953125 10.832031 -12.53125 11.9375 -11.6875 C 13.039062 -10.84375 13.742188 -9.6875 14.046875 -8.21875 L 10.609375 -8.21875 C 10.441406 -8.820312 10.101562 -9.296875 9.59375 -9.640625 C 9.09375 -9.992188 8.503906 -10.171875 7.828125 -10.171875 C 6.929688 -10.171875 6.164062 -9.832031 5.53125 -9.15625 C 4.90625 -8.476562 4.59375 -7.535156 4.59375 -6.328125 C 4.59375 -5.117188 4.90625 -4.171875 5.53125 -3.484375 C 6.164062 -2.804688 6.929688 -2.46875 7.828125 -2.46875 C 8.503906 -2.46875 9.09375 -2.640625 9.59375 -2.984375 C 10.101562 -3.328125 10.441406 -3.8125 10.609375 -4.4375 L 14.046875 -4.4375 C 13.742188 -3.007812 13.039062 -1.859375 11.9375 -0.984375 C 10.832031 -0.117188 9.472656 0.3125 7.859375 0.3125 Z M 7.859375 0.3125 "/></g></g></g><g fill="#000000" fill-opacity="1"><g transform="translate(88.162297, 31.069697)"><g><path d="M 1.65625 0 L 1.65625 -12.640625 L 4.5625 -12.640625 L 4.875 -10.28125 C 5.332031 -11.09375 5.957031 -11.738281 6.75 -12.21875 C 7.539062 -12.707031 8.46875 -12.953125 9.53125 -12.953125 L 9.53125 -9.515625 L 8.625 -9.515625 C 7.90625 -9.515625 7.265625 -9.398438 6.703125 -9.171875 C 6.140625 -8.953125 5.703125 -8.570312 5.390625 -8.03125 C 5.078125 -7.488281 4.921875 -6.734375 4.921875 -5.765625 L 4.921875 0 Z M 1.65625 0 "/></g></g></g><g fill="#000000" fill-opacity="1"><g transform="translate(96.982543, 31.069697)"><g><path d="M 3.234375 5.609375 L 6.171875 -0.84375 L 5.40625 -0.84375 L 0.484375 -12.640625 L 4.03125 -12.640625 L 7.578125 -3.75 L 11.265625 -12.640625 L 14.734375 -12.640625 L 6.703125 5.609375 Z M 3.234375 5.609375 "/></g></g></g><g fill="#000000" fill-opacity="1"><g transform="translate(110.926788, 31.069697)"><g><path d="M 1.65625 5.609375 L 1.65625 -12.640625 L 4.5625 -12.640625 L 4.921875 -10.84375 C 5.328125 -11.394531 5.863281 -11.882812 6.53125 -12.3125 C 7.207031 -12.738281 8.082031 -12.953125 9.15625 -12.953125 C 10.34375 -12.953125 11.40625 -12.660156 12.34375 -12.078125 C 13.28125 -11.503906 14.019531 -10.71875 14.5625 -9.71875 C 15.101562 -8.71875 15.375 -7.578125 15.375 -6.296875 C 15.375 -5.023438 15.101562 -3.890625 14.5625 -2.890625 C 14.019531 -1.898438 13.28125 -1.117188 12.34375 -0.546875 C 11.40625 0.0234375 10.34375 0.3125 9.15625 0.3125 C 8.195312 0.3125 7.359375 0.132812 6.640625 -0.21875 C 5.929688 -0.582031 5.359375 -1.085938 4.921875 -1.734375 L 4.921875 5.609375 Z M 8.46875 -2.546875 C 9.5 -2.546875 10.351562 -2.894531 11.03125 -3.59375 C 11.71875 -4.289062 12.0625 -5.191406 12.0625 -6.296875 C 12.0625 -7.398438 11.71875 -8.304688 11.03125 -9.015625 C 10.351562 -9.734375 9.5 -10.09375 8.46875 -10.09375 C 7.414062 -10.09375 6.550781 -9.738281 5.875 -9.03125 C 5.207031 -8.332031 4.875 -7.429688 4.875 -6.328125 C 4.875 -5.222656 5.207031 -4.316406 5.875 -3.609375 C 6.550781 -2.898438 7.414062 -2.546875 8.46875 -2.546875 Z M 8.46875 -2.546875 "/></g></g></g><g fill="#000000" fill-opacity="1"><g transform="translate(126.273115, 31.069697)"><g><path d="M 7.296875 0 C 5.960938 0 4.894531 -0.320312 4.09375 -0.96875 C 3.300781 -1.613281 2.90625 -2.757812 2.90625 -4.40625 L 2.90625 -9.921875 L 0.734375 -9.921875 L 0.734375 -12.640625 L 2.90625 -12.640625 L 3.296875 -16.046875 L 6.171875 -16.046875 L 6.171875 -12.640625 L 9.59375 -12.640625 L 9.59375 -9.921875 L 6.171875 -9.921875 L 6.171875 -4.390625 C 6.171875 -3.773438 6.300781 -3.351562 6.5625 -3.125 C 6.832031 -2.894531 7.289062 -2.78125 7.9375 -2.78125 L 9.515625 -2.78125 L 9.515625 0 Z M 7.296875 0 "/></g></g></g><g fill="#000000" fill-opacity="1"><g transform="translate(135.730674, 31.069697)"><g><path d="M 7.71875 0.3125 C 6.5 0.3125 5.398438 0.03125 4.421875 -0.53125 C 3.441406 -1.09375 2.664062 -1.867188 2.09375 -2.859375 C 1.53125 -3.859375 1.25 -5.015625 1.25 -6.328125 C 1.25 -7.628906 1.535156 -8.773438 2.109375 -9.765625 C 2.691406 -10.765625 3.472656 -11.546875 4.453125 -12.109375 C 5.429688 -12.671875 6.53125 -12.953125 7.75 -12.953125 C 8.957031 -12.953125 10.050781 -12.671875 11.03125 -12.109375 C 12.007812 -11.546875 12.78125 -10.765625 13.34375 -9.765625 C 13.914062 -8.773438 14.203125 -7.628906 14.203125 -6.328125 C 14.203125 -5.015625 13.914062 -3.859375 13.34375 -2.859375 C 12.78125 -1.867188 12.003906 -1.09375 11.015625 -0.53125 C 10.023438 0.03125 8.925781 0.3125 7.71875 0.3125 Z M 7.71875 -2.53125 C 8.570312 -2.53125 9.3125 -2.847656 9.9375 -3.484375 C 10.570312 -4.117188 10.890625 -5.066406 10.890625 -6.328125 C 10.890625 -7.585938 10.570312 -8.535156 9.9375 -9.171875 C 9.3125 -9.804688 8.582031 -10.125 7.75 -10.125 C 6.882812 -10.125 6.140625 -9.804688 5.515625 -9.171875 C 4.898438 -8.535156 4.59375 -7.585938 4.59375 -6.328125 C 4.59375 -5.066406 4.898438 -4.117188 5.515625 -3.484375 C 6.140625 -2.847656 6.875 -2.53125 7.71875 -2.53125 Z M 7.71875 -2.53125 "/></g></g></g><g fill="#000000" fill-opacity="1"><g transform="translate(149.904347, 31.069697)"><g><path d="M 1.296875 0 L 1.296875 -2.375 C 2.390625 -3.269531 3.445312 -4.160156 4.46875 -5.046875 C 5.5 -5.929688 6.414062 -6.804688 7.21875 -7.671875 C 8.03125 -8.535156 8.675781 -9.378906 9.15625 -10.203125 C 9.644531 -11.035156 9.890625 -11.84375 9.890625 -12.625 C 9.890625 -13.351562 9.691406 -14 9.296875 -14.5625 C 8.898438 -15.125 8.238281 -15.40625 7.3125 -15.40625 C 6.382812 -15.40625 5.679688 -15.097656 5.203125 -14.484375 C 4.722656 -13.867188 4.484375 -13.128906 4.484375 -12.265625 L 1.328125 -12.265625 C 1.359375 -13.578125 1.644531 -14.671875 2.1875 -15.546875 C 2.738281 -16.421875 3.460938 -17.070312 4.359375 -17.5 C 5.265625 -17.9375 6.273438 -18.15625 7.390625 -18.15625 C 9.210938 -18.15625 10.628906 -17.65625 11.640625 -16.65625 C 12.648438 -15.664062 13.15625 -14.378906 13.15625 -12.796875 C 13.15625 -11.816406 12.929688 -10.859375 12.484375 -9.921875 C 12.035156 -8.984375 11.441406 -8.082031 10.703125 -7.21875 C 9.972656 -6.351562 9.179688 -5.539062 8.328125 -4.78125 C 7.484375 -4.019531 6.660156 -3.316406 5.859375 -2.671875 L 13.59375 -2.671875 L 13.59375 0 Z M 1.296875 0 "/></g></g></g><g fill="#000000" fill-opacity="1"><g transform="translate(163.185784, 31.069697)"><g><path d="M 9.890625 0 L 9.890625 -3.3125 L 1.09375 -3.3125 L 1.09375 -5.921875 L 9.453125 -17.84375 L 13.15625 -17.84375 L 13.15625 -6.140625 L 15.5 -6.140625 L 15.5 -3.3125 L 13.15625 -3.3125 L 13.15625 0 Z M 4.59375 -6.140625 L 10.09375 -6.140625 L 10.09375 -14.25 Z M 4.59375 -6.140625 "/></g></g></g></svg>