<?xml version="1.0" encoding="utf-8"?>
<!-- Generator: Adobe Illustrator 25.0.1, SVG Export Plug-In . SVG Version: 6.00 Build 0)  -->
<svg version="1.0" id="katman_1" xmlns="http://www.w3.org/2000/svg" xmlns:xlink="http://www.w3.org/1999/xlink" x="0px" y="0px"
	 viewBox="0 0 800 600" style="enable-background:new 0 0 800 600;" xml:space="preserve">
<style type="text/css">
	.st0{fill:#B9B9B9;}
	.st1{fill:#E7E7E7;}
	.st2{fill:#CCCCCC;}
	.st3{fill:#C3C3C3;}
	.st4{fill:#D3D3D3;}
	.st5{fill:#DDDDDD;}
	.st6{fill-rule:evenodd;clip-rule:evenodd;}
</style>
<desc>Created with sketchtool.</desc>
<g id="New">
	<g id="press" transform="translate(-508.000000, -44.000000)">
		<g id="logo-_x28_6_x29_" transform="translate(508.000000, 40.000000)">
			<polygon id="Path" class="st0" points="189.8,304 152,341.8 227.6,341.8 			"/>
			<polygon id="Path_1_" class="st1" points="114.2,304 76.4,266.2 76.4,341.8 			"/>
			<polygon id="Path_2_" class="st0" points="189.8,304 227.6,266.2 152,266.2 			"/>
			<polygon id="Path_3_" class="st2" points="152,266.2 189.8,228.4 114.2,228.4 			"/>
			<polygon id="Path_4_" class="st3" points="189.8,379.6 227.6,341.8 152,341.8 			"/>
			<polygon id="Path_5_" class="st4" points="114.2,379.6 152,341.8 76.4,341.8 			"/>
			<polygon id="Path_6_" class="st3" points="189.8,228.4 152,266.2 227.6,266.2 			"/>
			<polygon id="Path_7_" class="st4" points="76.4,266.2 152,266.2 114.2,228.4 			"/>
			<polygon id="Path_8_" class="st2" points="152,341.8 114.2,379.6 189.8,379.6 			"/>
			<polygon id="Path_9_" class="st5" points="114.2,304 76.4,341.8 152,341.8 			"/>
			<polygon id="Path_10_" class="st5" points="152,266.2 76.4,266.2 114.2,304 			"/>
			<path id="Shape" class="st6" d="M271.5,317.9c2,0,3.5-0.6,4.5-1.7c1-1.1,1.5-2.7,1.5-4.9h13.8l0.1,0.3c0.3,4.9-1.8,9.7-5.5,12.9
				c-4,3.4-9.1,5.2-14.4,5c-7.4,0-13-2.3-17-6.8c-4.1-5-6.3-11.3-6-17.7v-1c0-7.2,2-13.1,6-17.7c3.9-4.6,9.6-6.8,16.9-6.8
				c6.1,0,11,1.7,14.7,5.1c3.8,3.6,5.7,8.8,5.4,14l-0.1,0.3h-13.8c0.1-2-0.5-4-1.5-5.6c-1-1.4-2.5-2.1-4.6-2.1c-2.9,0-4.9,1.2-6,3.5
				c-1.3,3-1.9,6.2-1.7,9.4v1c0,4,0.6,7.2,1.7,9.5C266.5,316.7,268.6,317.9,271.5,317.9L271.5,317.9z M325,293.6l-5.5,0
				c-1.7,0-3.1,0.3-4.2,0.8c-1.1,0.6-1.9,1.4-2.4,2.5v31.7h-15.1v-48.3h14.2l0.5,7.1c0.8-2.3,2.2-4.3,4.1-5.9
				c1.6-1.4,3.7-2.1,5.8-2.1c1.4,0,2.8,0.2,4.2,0.5L325,293.6L325,293.6z M353.7,307.3v0.4h0.3l8-27.4h16.1l-19.3,55.4
				c-1.5,3.6-3.4,6.5-5.8,8.8c-2.4,2.3-6.1,3.5-11.3,3.5c-1.3,0-2.4-0.1-3.2-0.3c-0.8-0.1-2.1-0.4-3.9-0.9l1.8-10.7l0.9,0.2l0.8,0.1
				c2.4,0,4.1-0.4,5.2-1.1c1.1-0.7,1.9-1.8,2.5-3.2l1.2-3.1l-16.8-48.8h16.1L353.7,307.3L353.7,307.3z M411.8,304.5
				c0-4-0.6-7.4-1.8-9.8c-1.2-2.5-3.1-3.7-5.7-3.7c-1.7,0-3.2,0.3-4.3,0.9c-1.2,0.6-2.1,1.5-2.8,2.7v20.2c0.7,1,1.7,1.8,2.8,2.3
				c1.4,0.5,2.9,0.8,4.4,0.7c2.7,0,4.5-1.1,5.7-3.3c1.3-2.9,1.9-6,1.7-9.2L411.8,304.5L411.8,304.5z M426.9,305.4
				c0,7.3-1.7,13.1-4.9,17.5c-3.2,4.4-8.4,6.8-13.8,6.6c-4.3,0.1-8.3-1.8-10.9-5.2v22.8h-15.1v-66.8h14.1l0.6,5.3
				c2.4-3.9,6.7-6.3,11.3-6.2c6,0,10.6,2.3,13.9,6.9c3.5,5.4,5.2,11.8,4.9,18.2V305.4L426.9,305.4z M451.4,268.3v12h8.2v10.4h-8.2
				v22.2c0,1.7,0.4,2.9,1,3.7c0.7,0.8,1.8,1.2,2.8,1.2c1.5,0,3-0.1,4.4-0.4l1,11.2c-3,0.7-6.1,1.1-9.3,1.1c-5,0-8.7-1.4-11.3-4
				c-2.6-2.6-3.9-6.8-3.9-12.5v-22.3h-6.8v-10.4h6.8v-12H451.4L451.4,268.3z M478.5,304.9c0,4,0.6,7.2,1.9,9.5
				c1.3,2.3,3.4,3.4,6.5,3.4c3,0,5.1-1.1,6.3-3.5c1.3-2.3,1.9-5.5,1.9-9.5v-1c0.1-3.3-0.5-6.5-1.9-9.4c-1.3-2.4-3.4-3.5-6.5-3.5
				c-3,0-5.1,1.2-6.3,3.6c-1.3,2.4-1.9,5.5-1.9,9.4V304.9L478.5,304.9z M463.4,304c-0.3-6.5,1.9-12.8,6.2-17.7
				c4.1-4.6,9.9-6.9,17.2-6.9c7.4,0,13.1,2.3,17.2,6.9c4.2,4.9,6.5,11.2,6.2,17.7v1c0,7.3-2.1,13.2-6.2,17.7
				c-4.1,4.6-9.8,6.8-17.2,6.8c-7.4,0-13.2-2.3-17.3-6.8c-4.2-4.9-6.4-11.3-6.1-17.7L463.4,304L463.4,304z M530.8,280.3l0.6,6.8
				c1.6-2.4,3.5-4.3,5.9-5.6c2.4-1.4,5-2.1,7.7-2c4.8,0,8.5,1.5,11.1,4.6c2.7,3.1,4,8,4,14.7v29.9H545v-30c0-2.8-0.6-4.7-1.7-5.9
				c-1.1-1.1-2.8-1.7-5.1-1.7c-2.5-0.1-4.9,1-6.5,2.9v34.7h-15v-48.3H530.8L530.8,280.3z M589.4,291c-2.2,0-3.8,0.7-4.9,2.3
				c-1.1,1.5-1.7,3.6-2,6.2l0.1,0.2h13v-1.1c0-2.5-0.5-4.3-1.5-5.6C593.1,291.6,591.6,291,589.4,291L589.4,291z M590.5,329.5
				c-7.2,0-12.8-2.2-17.1-6.7c-4.3-4.5-6.6-10.6-6.4-16.8v-1.7c0-7.4,1.9-13.4,5.8-18c3.9-4.6,9.4-7,16.6-6.9c6.6,0,11.7,2,15.4,5.9
				c3.9,4.4,5.9,10.1,5.6,15.9v7.9h-27.7l-0.1,0.3c0.4,2.5,1.3,4.5,3.1,6.1c1.7,1.6,3.9,2.4,6.8,2.4c4.6,0.1,9.2-0.9,13.4-3l3.6,9.2
				c-2.5,1.7-5.3,3-8.2,3.9C597.9,329,594.3,329.5,590.5,329.5L590.5,329.5z M658.4,308.3h0.3l5.2-28h13.9l-11.4,48.3h-12.8
				l-7.9-25.6h-0.3l-7.9,25.6h-12.8l-11.4-48.3h13.9l5.3,28.2h0.3l7.9-28.2h9.5L658.4,308.3L658.4,308.3z M708.4,315
				c0-1.2-0.7-2.2-2-3.2c-2.3-1.3-4.8-2.1-7.4-2.5c-4.6-0.7-9-2.4-12.8-5.2c-2.9-2.3-4.4-5.8-4.3-9.5c0-4.2,2-8.2,5.4-10.8
				c3.6-2.9,8.5-4.4,14.5-4.4c6.5,0,11.6,1.4,15.4,4.3c3.6,2.5,5.7,6.7,5.5,11.1l-0.1,0.3H708c0-1.9-0.5-3.3-1.5-4.3
				c-1-1-2.5-1.5-4.6-1.5c-1.6,0-2.9,0.4-4,1.3c-1,0.8-1.6,2-1.6,3.3c0.1,1.3,0.7,2.5,1.8,3.2c2.3,1.3,4.9,2.1,7.5,2.4
				c4.7,0.7,9.2,2.5,13.1,5.2c2.9,2.4,4.5,6,4.2,9.8c0,4.3-1.9,7.9-5.8,10.7c-4.5,3-9.9,4.5-15.3,4.2c-6.6,0-11.8-1.7-15.6-5
				c-3.8-3.3-5.7-7.1-5.5-11.2l0.1-0.3h13.7c0.1,2.3,0.7,3.9,2.1,4.9c1.3,1,3.2,1.5,5.6,1.5c2,0,3.6-0.4,4.6-1.2
				C707.9,317.6,708.4,316.4,708.4,315L708.4,315z"/>
		</g>
	</g>
</g>
</svg>
